<svg xmlns="http://www.w3.org/2000/svg" xmlns:xlink="http://www.w3.org/1999/xlink" width="500" zoomAndPan="magnify" viewBox="0 0 375 374.999991" height="500" preserveAspectRatio="xMidYMid meet" version="1.0"><defs><g/><clipPath id="c8e3f345cf"><path d="M 0 99.765625 L 375 99.765625 L 375 275.265625 L 0 275.265625 Z M 0 99.765625 " clip-rule="nonzero"/></clipPath><clipPath id="cd8010358d"><path d="M 13.921875 125.171875 L 128.414062 125.171875 L 128.414062 249.75 L 13.921875 249.75 Z M 13.921875 125.171875 " clip-rule="nonzero"/></clipPath></defs><g clip-path="url(#c8e3f345cf)"><path fill="#0012ff" d="M 353.753906 99.949219 L 21.246094 99.949219 C 9.527344 99.949219 0 109.472656 0 121.191406 L 0 253.804688 C 0 265.523438 9.527344 275.046875 21.246094 275.046875 L 353.679688 275.046875 C 365.398438 275.046875 374.925781 265.523438 374.925781 253.804688 L 374.925781 121.191406 C 375 109.472656 365.472656 99.949219 353.753906 99.949219 Z M 371.144531 253.804688 C 371.144531 263.40625 363.355469 271.191406 353.753906 271.191406 L 21.246094 271.191406 C 11.644531 271.191406 3.855469 263.40625 3.855469 253.804688 L 3.855469 121.191406 C 3.855469 111.589844 11.644531 103.804688 21.246094 103.804688 L 353.679688 103.804688 C 363.28125 103.804688 371.070312 111.589844 371.070312 121.191406 L 371.070312 253.804688 Z M 371.144531 253.804688 " fill-opacity="1" fill-rule="nonzero"/></g><g fill="#0012ff" fill-opacity="1"><g transform="translate(143.766168, 182.691474)"><g><path d="M 17.609375 0.785156 C 26.160156 0.785156 31.382812 -3.558594 31.382812 -10.492188 C 31.382812 -18.671875 23.988281 -20.335938 18.027344 -21.675781 C 14.003906 -22.601562 10.585938 -23.386719 10.585938 -25.929688 C 10.585938 -28.148438 12.894531 -29.074219 15.253906 -29.074219 C 18.71875 -29.074219 21.121094 -27.269531 21.953125 -24.265625 L 30.503906 -24.265625 C 29.394531 -32.125 22.832031 -36.003906 15.4375 -36.003906 C 8.226562 -36.003906 2.355469 -32.539062 2.355469 -25.238281 C 2.355469 -17.472656 9.429688 -15.898438 15.34375 -14.558594 C 19.503906 -13.636719 23.0625 -12.847656 23.0625 -10.074219 C 23.0625 -7.304688 20.382812 -6.148438 17.5625 -6.148438 C 14.375 -6.148438 11.183594 -7.347656 9.984375 -11.972656 L 1.433594 -11.972656 C 2.078125 -2.078125 10.953125 0.785156 17.609375 0.785156 Z M 17.609375 0.785156 "/></g></g></g><g fill="#0012ff" fill-opacity="1"><g transform="translate(176.671767, 182.691474)"><g><path d="M 22.324219 0 L 26.300781 -26.621094 L 30.273438 0 L 43.679688 0 L 52.089844 -35.265625 L 43.402344 -35.265625 L 37.113281 -5.871094 L 31.984375 -35.265625 L 20.613281 -35.265625 L 15.484375 -5.917969 L 9.199219 -35.265625 L 0.507812 -35.265625 L 8.921875 0 Z M 22.324219 0 "/></g></g></g><g fill="#0012ff" fill-opacity="1"><g transform="translate(229.265268, 182.691474)"><g><path d="M 11.046875 0 L 11.046875 -35.265625 L 2.773438 -35.265625 L 2.773438 0 Z M 11.046875 0 "/></g></g></g><g fill="#0012ff" fill-opacity="1"><g transform="translate(243.129985, 182.691474)"><g><path d="M 11.046875 0 L 11.046875 -13.957031 L 25.328125 -13.957031 L 25.328125 -21.308594 L 11.046875 -21.308594 L 11.046875 -27.871094 L 26.855469 -27.871094 L 26.855469 -35.265625 L 2.773438 -35.265625 L 2.773438 0 Z M 11.046875 0 "/></g></g></g><g fill="#0012ff" fill-opacity="1"><g transform="translate(271.136716, 182.691474)"><g><path d="M 11.046875 0 L 11.046875 -21.539062 L 24.589844 0 L 33 0 L 33 -35.265625 L 24.726562 -35.265625 L 24.726562 -13.867188 L 11.183594 -35.265625 L 2.773438 -35.265625 L 2.773438 0 Z M 11.046875 0 "/></g></g></g><g fill="#0012ff" fill-opacity="1"><g transform="translate(306.907693, 182.691474)"><g><path d="M 11.046875 0 L 11.046875 -35.265625 L 2.773438 -35.265625 L 2.773438 0 Z M 11.046875 0 "/></g></g></g><g fill="#0012ff" fill-opacity="1"><g transform="translate(320.77241, 182.691474)"><g><path d="M 36.652344 -17.65625 C 36.652344 -27.5 31.058594 -36.003906 19.089844 -36.003906 C 7.027344 -36.003906 1.480469 -27.5 1.480469 -17.65625 C 1.480469 -7.8125 7.027344 0.785156 19.089844 0.785156 C 21.167969 0.785156 23.0625 0.507812 24.773438 0.046875 L 27.175781 4.019531 L 36.515625 4.019531 L 31.523438 -3.835938 C 34.988281 -7.257812 36.652344 -12.292969 36.652344 -17.65625 Z M 10.214844 -17.65625 C 10.214844 -24.3125 13.542969 -28.609375 19.089844 -28.609375 C 24.636719 -28.609375 27.917969 -24.3125 27.917969 -17.65625 C 27.917969 -10.953125 24.636719 -6.609375 19.089844 -6.609375 C 13.542969 -6.609375 10.214844 -10.953125 10.214844 -17.65625 Z M 10.214844 -17.65625 "/></g></g></g><g fill="#ff0000" fill-opacity="1"><g transform="translate(170.555018, 229.471744)"><g><path d="M 15.1875 -7.78125 C 15.1875 -6.175781 14.863281 -4.757812 14.21875 -3.53125 C 13.582031 -2.3125 12.679688 -1.359375 11.515625 -0.671875 C 10.347656 0.015625 8.96875 0.359375 7.375 0.359375 C 6.632812 0.359375 5.921875 0.3125 5.234375 0.21875 C 4.546875 0.132812 3.867188 -0.0078125 3.203125 -0.21875 C 2.535156 -0.4375 1.867188 -0.722656 1.203125 -1.078125 L 1.203125 -6.28125 C 2.171875 -5.65625 3.175781 -5.175781 4.21875 -4.84375 C 5.257812 -4.519531 6.222656 -4.359375 7.109375 -4.359375 C 7.765625 -4.359375 8.304688 -4.484375 8.734375 -4.734375 C 9.160156 -4.992188 9.476562 -5.34375 9.6875 -5.78125 C 9.90625 -6.21875 10.015625 -6.707031 10.015625 -7.25 C 10.015625 -7.832031 9.921875 -8.34375 9.734375 -8.78125 C 9.554688 -9.226562 9.207031 -9.671875 8.6875 -10.109375 C 8.175781 -10.554688 7.425781 -11.070312 6.4375 -11.65625 C 5.65625 -12.113281 4.953125 -12.582031 4.328125 -13.0625 C 3.703125 -13.550781 3.171875 -14.085938 2.734375 -14.671875 C 2.296875 -15.265625 1.957031 -15.945312 1.71875 -16.71875 C 1.488281 -17.488281 1.375 -18.40625 1.375 -19.46875 C 1.363281 -20.96875 1.65625 -22.28125 2.25 -23.40625 C 2.851562 -24.53125 3.722656 -25.40625 4.859375 -26.03125 C 5.992188 -26.65625 7.351562 -26.960938 8.9375 -26.953125 C 10.019531 -26.953125 11.078125 -26.804688 12.109375 -26.515625 C 13.148438 -26.222656 14.148438 -25.8125 15.109375 -25.28125 L 13.703125 -20.765625 C 12.835938 -21.285156 12.023438 -21.671875 11.265625 -21.921875 C 10.503906 -22.171875 9.789062 -22.296875 9.125 -22.296875 C 8.539062 -22.296875 8.050781 -22.179688 7.65625 -21.953125 C 7.257812 -21.734375 6.960938 -21.429688 6.765625 -21.046875 C 6.566406 -20.660156 6.46875 -20.21875 6.46875 -19.71875 C 6.46875 -19.082031 6.5625 -18.546875 6.75 -18.109375 C 6.945312 -17.679688 7.316406 -17.253906 7.859375 -16.828125 C 8.398438 -16.410156 9.175781 -15.914062 10.1875 -15.34375 C 11.289062 -14.695312 12.210938 -14.015625 12.953125 -13.296875 C 13.691406 -12.578125 14.25 -11.769531 14.625 -10.875 C 15 -9.988281 15.1875 -8.957031 15.1875 -7.78125 Z M 15.1875 -7.78125 "/></g></g></g><g fill="#ff0000" fill-opacity="1"><g transform="translate(186.852952, 229.471744)"><g><path d="M 20.46875 -13.328125 C 20.46875 -11.210938 20.269531 -9.3125 19.875 -7.625 C 19.488281 -5.9375 18.90625 -4.5 18.125 -3.3125 C 17.351562 -2.125 16.378906 -1.210938 15.203125 -0.578125 C 14.023438 0.046875 12.640625 0.359375 11.046875 0.359375 C 9.453125 0.359375 8.0625 0.0390625 6.875 -0.59375 C 5.6875 -1.226562 4.703125 -2.144531 3.921875 -3.34375 C 3.148438 -4.539062 2.566406 -5.976562 2.171875 -7.65625 C 1.785156 -9.34375 1.59375 -11.242188 1.59375 -13.359375 C 1.59375 -16.335938 1.953125 -18.835938 2.671875 -20.859375 C 3.390625 -22.878906 4.445312 -24.40625 5.84375 -25.4375 C 7.25 -26.46875 8.984375 -26.984375 11.046875 -26.984375 C 13.191406 -26.984375 14.957031 -26.429688 16.34375 -25.328125 C 17.726562 -24.234375 18.757812 -22.664062 19.4375 -20.625 C 20.125 -18.582031 20.46875 -16.148438 20.46875 -13.328125 Z M 6.890625 -13.328125 C 6.890625 -11.285156 7.046875 -9.582031 7.359375 -8.21875 C 7.671875 -6.851562 8.132812 -5.828125 8.75 -5.140625 C 9.375 -4.460938 10.140625 -4.125 11.046875 -4.125 C 11.972656 -4.125 12.738281 -4.457031 13.34375 -5.125 C 13.957031 -5.789062 14.414062 -6.800781 14.71875 -8.15625 C 15.03125 -9.507812 15.1875 -11.234375 15.1875 -13.328125 C 15.1875 -16.429688 14.84375 -18.742188 14.15625 -20.265625 C 13.46875 -21.785156 12.429688 -22.546875 11.046875 -22.546875 C 10.140625 -22.546875 9.375 -22.203125 8.75 -21.515625 C 8.132812 -20.828125 7.671875 -19.796875 7.359375 -18.421875 C 7.046875 -17.054688 6.890625 -15.359375 6.890625 -13.328125 Z M 6.890625 -13.328125 "/></g></g></g><g fill="#ff0000" fill-opacity="1"><g transform="translate(208.910574, 229.471744)"><g><path d="M 2.375 0 L 2.375 -26.5625 L 7.484375 -26.5625 L 7.484375 -4.4375 L 14.5625 -4.4375 L 14.5625 0 Z M 2.375 0 "/></g></g></g><g fill="#ff0000" fill-opacity="1"><g transform="translate(224.009329, 229.471744)"><g><path d="M 18.6875 -26.5625 L 18.6875 -8.734375 C 18.6875 -6.703125 18.367188 -5.015625 17.734375 -3.671875 C 17.109375 -2.328125 16.179688 -1.316406 14.953125 -0.640625 C 13.734375 0.0234375 12.21875 0.359375 10.40625 0.359375 C 7.78125 0.359375 5.757812 -0.378906 4.34375 -1.859375 C 2.9375 -3.347656 2.234375 -5.601562 2.234375 -8.625 L 2.234375 -26.5625 L 7.328125 -26.5625 L 7.328125 -8.8125 C 7.328125 -7.125 7.59375 -5.921875 8.125 -5.203125 C 8.65625 -4.484375 9.429688 -4.125 10.453125 -4.125 C 11.160156 -4.125 11.75 -4.273438 12.21875 -4.578125 C 12.6875 -4.890625 13.035156 -5.390625 13.265625 -6.078125 C 13.503906 -6.773438 13.625 -7.695312 13.625 -8.84375 L 13.625 -26.5625 Z M 18.6875 -26.5625 "/></g></g></g><g fill="#ff0000" fill-opacity="1"><g transform="translate(244.922284, 229.471744)"><g><path d="M 10.5 0 L 5.46875 0 L 5.46875 -22.15625 L 0.53125 -22.15625 L 0.53125 -26.5625 L 15.40625 -26.5625 L 15.40625 -22.15625 L 10.5 -22.15625 Z M 10.5 0 "/></g></g></g><g fill="#ff0000" fill-opacity="1"><g transform="translate(260.893169, 229.471744)"><g><path d="M 2.375 0 L 2.375 -26.5625 L 7.484375 -26.5625 L 7.484375 0 Z M 2.375 0 "/></g></g></g><g fill="#ff0000" fill-opacity="1"><g transform="translate(270.759143, 229.471744)"><g><path d="M 20.46875 -13.328125 C 20.46875 -11.210938 20.269531 -9.3125 19.875 -7.625 C 19.488281 -5.9375 18.90625 -4.5 18.125 -3.3125 C 17.351562 -2.125 16.378906 -1.210938 15.203125 -0.578125 C 14.023438 0.046875 12.640625 0.359375 11.046875 0.359375 C 9.453125 0.359375 8.0625 0.0390625 6.875 -0.59375 C 5.6875 -1.226562 4.703125 -2.144531 3.921875 -3.34375 C 3.148438 -4.539062 2.566406 -5.976562 2.171875 -7.65625 C 1.785156 -9.34375 1.59375 -11.242188 1.59375 -13.359375 C 1.59375 -16.335938 1.953125 -18.835938 2.671875 -20.859375 C 3.390625 -22.878906 4.445312 -24.40625 5.84375 -25.4375 C 7.25 -26.46875 8.984375 -26.984375 11.046875 -26.984375 C 13.191406 -26.984375 14.957031 -26.429688 16.34375 -25.328125 C 17.726562 -24.234375 18.757812 -22.664062 19.4375 -20.625 C 20.125 -18.582031 20.46875 -16.148438 20.46875 -13.328125 Z M 6.890625 -13.328125 C 6.890625 -11.285156 7.046875 -9.582031 7.359375 -8.21875 C 7.671875 -6.851562 8.132812 -5.828125 8.75 -5.140625 C 9.375 -4.460938 10.140625 -4.125 11.046875 -4.125 C 11.972656 -4.125 12.738281 -4.457031 13.34375 -5.125 C 13.957031 -5.789062 14.414062 -6.800781 14.71875 -8.15625 C 15.03125 -9.507812 15.1875 -11.234375 15.1875 -13.328125 C 15.1875 -16.429688 14.84375 -18.742188 14.15625 -20.265625 C 13.46875 -21.785156 12.429688 -22.546875 11.046875 -22.546875 C 10.140625 -22.546875 9.375 -22.203125 8.75 -21.515625 C 8.132812 -20.828125 7.671875 -19.796875 7.359375 -18.421875 C 7.046875 -17.054688 6.890625 -15.359375 6.890625 -13.328125 Z M 6.890625 -13.328125 "/></g></g></g><g fill="#ff0000" fill-opacity="1"><g transform="translate(292.816759, 229.471744)"><g><path d="M 20.765625 0 L 14.78125 0 L 7 -18.53125 L 6.84375 -18.53125 C 6.914062 -17.675781 6.972656 -16.867188 7.015625 -16.109375 C 7.066406 -15.347656 7.097656 -14.648438 7.109375 -14.015625 C 7.128906 -13.390625 7.140625 -12.828125 7.140625 -12.328125 L 7.140625 0 L 2.375 0 L 2.375 -26.5625 L 8.34375 -26.5625 L 16.078125 -8.453125 L 16.234375 -8.453125 C 16.179688 -9.285156 16.132812 -10.0625 16.09375 -10.78125 C 16.0625 -11.5 16.03125 -12.164062 16 -12.78125 C 15.976562 -13.40625 15.96875 -13.972656 15.96875 -14.484375 L 15.96875 -26.5625 L 20.765625 -26.5625 Z M 20.765625 0 "/></g></g></g><g fill="#ff0000" fill-opacity="1"><g transform="translate(315.964537, 229.471744)"><g><path d="M 15.1875 -7.78125 C 15.1875 -6.175781 14.863281 -4.757812 14.21875 -3.53125 C 13.582031 -2.3125 12.679688 -1.359375 11.515625 -0.671875 C 10.347656 0.015625 8.96875 0.359375 7.375 0.359375 C 6.632812 0.359375 5.921875 0.3125 5.234375 0.21875 C 4.546875 0.132812 3.867188 -0.0078125 3.203125 -0.21875 C 2.535156 -0.4375 1.867188 -0.722656 1.203125 -1.078125 L 1.203125 -6.28125 C 2.171875 -5.65625 3.175781 -5.175781 4.21875 -4.84375 C 5.257812 -4.519531 6.222656 -4.359375 7.109375 -4.359375 C 7.765625 -4.359375 8.304688 -4.484375 8.734375 -4.734375 C 9.160156 -4.992188 9.476562 -5.34375 9.6875 -5.78125 C 9.90625 -6.21875 10.015625 -6.707031 10.015625 -7.25 C 10.015625 -7.832031 9.921875 -8.34375 9.734375 -8.78125 C 9.554688 -9.226562 9.207031 -9.671875 8.6875 -10.109375 C 8.175781 -10.554688 7.425781 -11.070312 6.4375 -11.65625 C 5.65625 -12.113281 4.953125 -12.582031 4.328125 -13.0625 C 3.703125 -13.550781 3.171875 -14.085938 2.734375 -14.671875 C 2.296875 -15.265625 1.957031 -15.945312 1.71875 -16.71875 C 1.488281 -17.488281 1.375 -18.40625 1.375 -19.46875 C 1.363281 -20.96875 1.65625 -22.28125 2.25 -23.40625 C 2.851562 -24.53125 3.722656 -25.40625 4.859375 -26.03125 C 5.992188 -26.65625 7.351562 -26.960938 8.9375 -26.953125 C 10.019531 -26.953125 11.078125 -26.804688 12.109375 -26.515625 C 13.148438 -26.222656 14.148438 -25.8125 15.109375 -25.28125 L 13.703125 -20.765625 C 12.835938 -21.285156 12.023438 -21.671875 11.265625 -21.921875 C 10.503906 -22.171875 9.789062 -22.296875 9.125 -22.296875 C 8.539062 -22.296875 8.050781 -22.179688 7.65625 -21.953125 C 7.257812 -21.734375 6.960938 -21.429688 6.765625 -21.046875 C 6.566406 -20.660156 6.46875 -20.21875 6.46875 -19.71875 C 6.46875 -19.082031 6.5625 -18.546875 6.75 -18.109375 C 6.945312 -17.679688 7.316406 -17.253906 7.859375 -16.828125 C 8.398438 -16.410156 9.175781 -15.914062 10.1875 -15.34375 C 11.289062 -14.695312 12.210938 -14.015625 12.953125 -13.296875 C 13.691406 -12.578125 14.25 -11.769531 14.625 -10.875 C 15 -9.988281 15.1875 -8.957031 15.1875 -7.78125 Z M 15.1875 -7.78125 "/></g></g></g><g clip-path="url(#cd8010358d)"><path fill="#ff9b00" d="M 71.128906 139.964844 L 13.921875 173.023438 L 13.921875 158.242188 L 71.128906 125.183594 L 128.339844 158.242188 L 128.339844 173.023438 Z M 48.691406 236.847656 L 70.941406 249.820312 L 128.335938 216.660156 L 128.335938 193.628906 L 100.957031 177.792969 L 36.542969 215.003906 L 26.71875 209.289062 L 26.71875 196.734375 L 67.691406 173.140625 L 75.035156 177.410156 L 87.808594 170.035156 L 67.726562 158.347656 L 13.921875 189.339844 L 13.921875 216.648438 L 36.523438 229.796875 L 100.949219 192.574219 L 115.539062 201.011719 L 115.539062 209.277344 L 70.992188 235.011719 L 61.464844 229.464844 Z M 48.691406 236.847656 " fill-opacity="1" fill-rule="nonzero"/></g></svg>