<svg xmlns="http://www.w3.org/2000/svg" xmlns:xlink="http://www.w3.org/1999/xlink" width="500" zoomAndPan="magnify" viewBox="0 0 375 374.999991" height="500" preserveAspectRatio="xMidYMid meet" version="1.0"><defs><g/><clipPath id="eb370517d9"><path d="M 0 162.738281 L 375 162.738281 L 375 211.253906 L 0 211.253906 Z M 0 162.738281 " clip-rule="nonzero"/></clipPath><clipPath id="042da34bb5"><path d="M 24.257812 162.738281 L 350.742188 162.738281 C 357.175781 162.738281 363.347656 165.292969 367.894531 169.84375 C 372.445312 174.390625 375 180.5625 375 186.996094 C 375 193.429688 372.445312 199.597656 367.894531 204.148438 C 363.347656 208.695312 357.175781 211.253906 350.742188 211.253906 L 24.257812 211.253906 C 17.824219 211.253906 11.652344 208.695312 7.105469 204.148438 C 2.554688 199.597656 0 193.429688 0 186.996094 C 0 180.5625 2.554688 174.390625 7.105469 169.84375 C 11.652344 165.292969 17.824219 162.738281 24.257812 162.738281 Z M 24.257812 162.738281 " clip-rule="nonzero"/></clipPath><clipPath id="8c63e1910e"><path d="M 18.007812 168.40625 L 53.351562 168.40625 L 53.351562 206.578125 L 18.007812 206.578125 Z M 18.007812 168.40625 " clip-rule="nonzero"/></clipPath></defs><g clip-path="url(#eb370517d9)"><g clip-path="url(#042da34bb5)"><path fill="#ffffff" d="M 0 162.738281 L 375.042969 162.738281 L 375.042969 211.253906 L 0 211.253906 Z M 0 162.738281 " fill-opacity="1" fill-rule="nonzero"/></g></g><g fill="#0012ff" fill-opacity="1"><g transform="translate(61.877066, 197.384467)"><g><path d="M 10.410156 0.464844 C 15.46875 0.464844 18.554688 -2.105469 18.554688 -6.203125 C 18.554688 -11.039062 14.183594 -12.023438 10.65625 -12.816406 C 8.28125 -13.363281 6.257812 -13.828125 6.257812 -15.332031 C 6.257812 -16.644531 7.625 -17.1875 9.019531 -17.1875 C 11.066406 -17.1875 12.488281 -16.125 12.980469 -14.347656 L 18.035156 -14.347656 C 17.378906 -18.992188 13.5 -21.289062 9.128906 -21.289062 C 4.863281 -21.289062 1.394531 -19.238281 1.394531 -14.921875 C 1.394531 -10.328125 5.574219 -9.402344 9.074219 -8.609375 C 11.53125 -8.0625 13.636719 -7.597656 13.636719 -5.957031 C 13.636719 -4.316406 12.050781 -3.632812 10.382812 -3.632812 C 8.5 -3.632812 6.613281 -4.34375 5.902344 -7.078125 L 0.847656 -7.078125 C 1.230469 -1.230469 6.476562 0.464844 10.410156 0.464844 Z M 10.410156 0.464844 "/></g></g></g><g fill="#0012ff" fill-opacity="1"><g transform="translate(81.332677, 197.384467)"><g><path d="M 13.199219 0 L 15.550781 -15.742188 L 17.898438 0 L 25.824219 0 L 30.796875 -20.851562 L 25.660156 -20.851562 L 21.945312 -3.46875 L 18.910156 -20.851562 L 12.1875 -20.851562 L 9.15625 -3.496094 L 5.4375 -20.851562 L 0.300781 -20.851562 L 5.273438 0 Z M 13.199219 0 "/></g></g></g><g fill="#0012ff" fill-opacity="1"><g transform="translate(112.428868, 197.384467)"><g><path d="M 6.53125 0 L 6.53125 -20.851562 L 1.640625 -20.851562 L 1.640625 0 Z M 6.53125 0 "/></g></g></g><g fill="#0012ff" fill-opacity="1"><g transform="translate(120.626462, 197.384467)"><g><path d="M 6.53125 0 L 6.53125 -8.253906 L 14.976562 -8.253906 L 14.976562 -12.597656 L 6.53125 -12.597656 L 6.53125 -16.480469 L 15.878906 -16.480469 L 15.878906 -20.851562 L 1.640625 -20.851562 L 1.640625 0 Z M 6.53125 0 "/></g></g></g><g fill="#0012ff" fill-opacity="1"><g transform="translate(137.185589, 197.384467)"><g><path d="M 6.53125 0 L 6.53125 -12.734375 L 14.539062 0 L 19.511719 0 L 19.511719 -20.851562 L 14.621094 -20.851562 L 14.621094 -8.199219 L 6.613281 -20.851562 L 1.640625 -20.851562 L 1.640625 0 Z M 6.53125 0 "/></g></g></g><g fill="#0012ff" fill-opacity="1"><g transform="translate(158.335366, 197.384467)"><g><path d="M 6.53125 0 L 6.53125 -20.851562 L 1.640625 -20.851562 L 1.640625 0 Z M 6.53125 0 "/></g></g></g><g fill="#0012ff" fill-opacity="1"><g transform="translate(166.53296, 197.384467)"><g><path d="M 21.671875 -10.4375 C 21.671875 -16.261719 18.363281 -21.289062 11.285156 -21.289062 C 4.152344 -21.289062 0.875 -16.261719 0.875 -10.4375 C 0.875 -4.617188 4.152344 0.464844 11.285156 0.464844 C 12.515625 0.464844 13.636719 0.300781 14.648438 0.0273438 L 16.070312 2.378906 L 21.589844 2.378906 L 18.636719 -2.269531 C 20.6875 -4.289062 21.671875 -7.269531 21.671875 -10.4375 Z M 6.039062 -10.4375 C 6.039062 -14.375 8.007812 -16.914062 11.285156 -16.914062 C 14.566406 -16.914062 16.507812 -14.375 16.507812 -10.4375 C 16.507812 -6.476562 14.566406 -3.90625 11.285156 -3.90625 C 8.007812 -3.90625 6.039062 -6.476562 6.039062 -10.4375 Z M 6.039062 -10.4375 "/></g></g></g><g fill="#ff0000" fill-opacity="1"><g transform="translate(195.918487, 197.384467)"><g><path d="M 10.140625 0.382812 C 15.058594 0.382812 17.925781 -2.105469 17.925781 -6.039062 C 17.925781 -10.765625 13.800781 -11.695312 10.328125 -12.460938 C 7.789062 -13.035156 5.546875 -13.527344 5.546875 -15.441406 C 5.546875 -17.023438 6.96875 -17.871094 8.9375 -17.871094 C 11.066406 -17.871094 12.84375 -16.863281 13.363281 -14.648438 L 17.378906 -14.648438 C 16.726562 -19.15625 13.035156 -21.234375 9.019531 -21.234375 C 4.808594 -21.234375 1.640625 -19.128906 1.640625 -15.113281 C 1.640625 -10.710938 5.519531 -9.867188 8.9375 -9.101562 C 11.585938 -8.527344 13.964844 -8.007812 13.964844 -5.847656 C 13.964844 -3.851562 12.324219 -2.980469 10.164062 -2.980469 C 7.980469 -2.980469 5.710938 -3.796875 5.027344 -6.777344 L 0.957031 -6.777344 C 1.476562 -1.394531 6.121094 0.382812 10.140625 0.382812 Z M 10.140625 0.382812 "/></g></g></g><g fill="#ff0000" fill-opacity="1"><g transform="translate(214.936893, 197.384467)"><g><path d="M 11.175781 0.382812 C 18.089844 0.382812 21.316406 -4.671875 21.316406 -10.4375 C 21.316406 -16.207031 18.089844 -21.234375 11.175781 -21.234375 C 4.289062 -21.234375 1.066406 -16.207031 1.066406 -10.4375 C 1.066406 -4.671875 4.289062 0.382812 11.175781 0.382812 Z M 11.175781 -3.144531 C 7.378906 -3.144531 5.164062 -6.09375 5.164062 -10.4375 C 5.164062 -14.757812 7.378906 -17.679688 11.175781 -17.679688 C 15.03125 -17.679688 17.214844 -14.757812 17.214844 -10.4375 C 17.214844 -6.09375 15.03125 -3.144531 11.175781 -3.144531 Z M 11.175781 -3.144531 "/></g></g></g><g fill="#ff0000" fill-opacity="1"><g transform="translate(237.343642, 197.384467)"><g><path d="M 14.621094 0 L 14.621094 -3.523438 L 5.792969 -3.523438 L 5.792969 -20.851562 L 1.859375 -20.851562 L 1.859375 0 Z M 14.621094 0 "/></g></g></g><g fill="#ff0000" fill-opacity="1"><g transform="translate(252.263256, 197.384467)"><g><path d="M 10.058594 0.382812 C 16.015625 0.382812 18.472656 -2.84375 18.472656 -7.570312 L 18.472656 -20.851562 L 14.511719 -20.851562 L 14.511719 -7.570312 C 14.511719 -4.972656 13.417969 -3.144531 10.058594 -3.144531 C 6.695312 -3.144531 5.601562 -4.972656 5.601562 -7.570312 L 5.601562 -20.851562 L 1.640625 -20.851562 L 1.640625 -7.570312 C 1.640625 -2.84375 4.070312 0.382812 10.058594 0.382812 Z M 10.058594 0.382812 "/></g></g></g><g fill="#ff0000" fill-opacity="1"><g transform="translate(272.401996, 197.384467)"><g><path d="M 10.574219 0 L 10.574219 -17.324219 L 16.914062 -17.324219 L 16.914062 -20.851562 L 0.273438 -20.851562 L 0.273438 -17.324219 L 6.640625 -17.324219 L 6.640625 0 Z M 10.574219 0 "/></g></g></g><g fill="#ff0000" fill-opacity="1"><g transform="translate(289.61693, 197.384467)"><g><path d="M 5.792969 0 L 5.792969 -20.851562 L 1.859375 -20.851562 L 1.859375 0 Z M 5.792969 0 "/></g></g></g><g fill="#ff0000" fill-opacity="1"><g transform="translate(297.268013, 197.384467)"><g><path d="M 11.175781 0.382812 C 18.089844 0.382812 21.316406 -4.671875 21.316406 -10.4375 C 21.316406 -16.207031 18.089844 -21.234375 11.175781 -21.234375 C 4.289062 -21.234375 1.066406 -16.207031 1.066406 -10.4375 C 1.066406 -4.671875 4.289062 0.382812 11.175781 0.382812 Z M 11.175781 -3.144531 C 7.378906 -3.144531 5.164062 -6.09375 5.164062 -10.4375 C 5.164062 -14.757812 7.378906 -17.679688 11.175781 -17.679688 C 15.03125 -17.679688 17.214844 -14.757812 17.214844 -10.4375 C 17.214844 -6.09375 15.03125 -3.144531 11.175781 -3.144531 Z M 11.175781 -3.144531 "/></g></g></g><g fill="#ff0000" fill-opacity="1"><g transform="translate(319.674762, 197.384467)"><g><path d="M 5.792969 0 L 5.792969 -14.949219 L 14.320312 0 L 18.773438 0 L 18.773438 -20.851562 L 14.839844 -20.851562 L 14.839844 -5.929688 L 6.285156 -20.851562 L 1.859375 -20.851562 L 1.859375 0 Z M 5.792969 0 "/></g></g></g><g fill="#ff0000" fill-opacity="1"><g transform="translate(340.305359, 197.384467)"><g><path d="M 10.140625 0.382812 C 15.058594 0.382812 17.925781 -2.105469 17.925781 -6.039062 C 17.925781 -10.765625 13.800781 -11.695312 10.328125 -12.460938 C 7.789062 -13.035156 5.546875 -13.527344 5.546875 -15.441406 C 5.546875 -17.023438 6.96875 -17.871094 8.9375 -17.871094 C 11.066406 -17.871094 12.84375 -16.863281 13.363281 -14.648438 L 17.378906 -14.648438 C 16.726562 -19.15625 13.035156 -21.234375 9.019531 -21.234375 C 4.808594 -21.234375 1.640625 -19.128906 1.640625 -15.113281 C 1.640625 -10.710938 5.519531 -9.867188 8.9375 -9.101562 C 11.585938 -8.527344 13.964844 -8.007812 13.964844 -5.847656 C 13.964844 -3.851562 12.324219 -2.980469 10.164062 -2.980469 C 7.980469 -2.980469 5.710938 -3.796875 5.027344 -6.777344 L 0.957031 -6.777344 C 1.476562 -1.394531 6.121094 0.382812 10.140625 0.382812 Z M 10.140625 0.382812 "/></g></g></g><g clip-path="url(#8c63e1910e)"><path fill="#ff9b00" d="M 35.527344 172.9375 L 18.007812 183.0625 L 18.007812 178.535156 L 35.527344 168.410156 L 53.050781 178.535156 L 53.050781 183.0625 Z M 28.65625 202.613281 L 35.472656 206.585938 L 53.050781 196.429688 L 53.050781 189.375 L 44.664062 184.523438 L 24.933594 195.921875 L 21.925781 194.171875 L 21.925781 190.324219 L 34.476562 183.097656 L 36.726562 184.40625 L 40.636719 182.148438 L 34.484375 178.570312 L 18.007812 188.0625 L 18.007812 196.425781 L 24.929688 200.453125 L 44.660156 189.050781 L 49.128906 191.636719 L 49.128906 194.167969 L 35.488281 202.050781 L 32.566406 200.351562 Z M 28.65625 202.613281 " fill-opacity="1" fill-rule="nonzero"/></g></svg>