<svg xmlns="http://www.w3.org/2000/svg" xmlns:xlink="http://www.w3.org/1999/xlink" width="500" zoomAndPan="magnify" viewBox="0 0 375 374.999991" height="500" preserveAspectRatio="xMidYMid meet" version="1.0"><defs><clipPath id="386fbf44e2"><path d="M 44.523438 31.738281 L 330.273438 31.738281 L 330.273438 342.988281 L 44.523438 342.988281 Z M 44.523438 31.738281 " clip-rule="nonzero"/></clipPath></defs><g clip-path="url(#386fbf44e2)"><path fill="#ff9b00" d="M 187.492188 68.710938 L 44.523438 151.320312 L 44.523438 114.382812 L 187.492188 31.773438 L 330.457031 114.382812 L 330.457031 151.320312 Z M 131.417969 310.824219 L 187.019531 343.25 L 330.453125 260.378906 L 330.453125 202.816406 L 262.027344 163.242188 L 101.054688 256.234375 L 76.503906 241.957031 L 76.503906 210.574219 L 178.898438 151.617188 L 197.253906 162.285156 L 229.171875 143.851562 L 178.988281 114.652344 L 44.523438 192.097656 L 44.523438 260.351562 L 101.007812 293.203125 L 262.011719 200.1875 L 298.472656 221.273438 L 298.472656 241.921875 L 187.148438 306.238281 L 163.335938 292.375 Z M 131.417969 310.824219 " fill-opacity="1" fill-rule="nonzero"/></g></svg>