<svg version="1.1" id="Layer_1" xmlns="http://www.w3.org/2000/svg" xmlns:xlink="http://www.w3.org/1999/xlink" x="0px" y="0px"
	 width="100%" viewBox="0 0 2000 500" enable-background="new 0 0 2000 500" xml:space="preserve">
<path fill="#FFFEFF" opacity="1.000000" stroke="none" 
	d="
M1910.000000,501.000000 
	C1273.333374,501.000000 637.166687,501.000000 1.000000,501.000000 
	C1.000000,334.333344 1.000000,167.666672 1.000000,1.000000 
	C667.666687,1.000000 1334.333374,1.000000 2001.000000,1.000000 
	C2001.000000,167.666672 2001.000000,334.333344 2001.000000,501.000000 
	C1970.833374,501.000000 1940.666626,501.000000 1910.000000,501.000000 
M443.289429,295.448151 
	C444.193909,298.923950 445.098358,302.399750 445.926575,305.582520 
	C460.755920,305.582520 474.873779,305.582520 489.453369,305.582520 
	C493.514069,278.557373 497.551483,251.687195 501.588928,224.817017 
	C502.067200,224.824371 502.545471,224.831726 503.023743,224.839081 
	C503.731171,229.195694 504.487427,233.545013 505.137848,237.910126 
	C508.328766,259.325714 511.447845,280.752319 514.768433,302.147675 
	C514.976440,303.488190 516.664917,305.637024 517.695007,305.654877 
	C531.328186,305.890961 544.966797,305.812317 558.912842,305.812317 
	C568.040405,267.533783 577.087952,229.590637 586.216919,191.306213 
	C576.354797,191.306213 567.291138,191.306213 557.934753,191.306213 
	C551.286255,222.278625 544.687134,253.021286 538.087952,283.763947 
	C537.746643,283.719513 537.405396,283.675079 537.064087,283.630646 
	C531.671448,252.843933 526.278748,222.057220 520.839478,191.004303 
	C509.130798,191.004303 497.811523,190.890472 486.502350,191.175598 
	C485.336609,191.204987 483.473480,193.477692 483.210358,194.939255 
	C478.961884,218.537506 474.939209,242.176300 470.817596,265.797577 
	C469.885162,271.141418 468.772003,276.453705 467.742035,281.780518 
	C467.229370,281.747375 466.716736,281.714233 466.204071,281.681091 
	C459.723999,251.528915 453.243896,221.376724 446.783478,191.316132 
	C437.173828,191.316132 428.077820,191.316132 418.480042,191.316132 
	C426.772430,226.027985 434.965973,260.326233 443.289429,295.448151 
M194.317459,246.927322 
	C167.885712,262.077423 141.327072,277.013306 115.116982,292.537659 
	C109.036896,296.138916 104.694931,296.175873 98.482323,292.741577 
	C91.984375,289.149567 89.140869,285.078552 90.279121,277.898407 
	C90.614113,275.785248 90.522324,273.553223 90.288589,271.412537 
	C89.893799,267.796753 91.312828,265.729095 94.541779,263.927643 
	C114.458252,252.815994 134.337616,241.629730 154.005692,230.087234 
	C158.408585,227.503326 161.721756,227.385193 165.767441,230.275238 
	C167.824615,231.744797 171.178635,233.762924 172.829041,233.027039 
	C179.823547,229.908325 186.399002,225.849777 194.029419,221.636719 
	C183.263184,215.389389 173.576172,209.927643 164.073059,204.162735 
	C160.973907,202.282700 158.587265,202.298096 155.435959,204.112473 
	C127.590660,220.144348 99.621315,235.961014 71.811378,252.053375 
	C70.100525,253.043381 68.473244,255.804840 68.426834,257.780151 
	C68.125534,270.603912 68.128395,283.441528 68.426399,296.265472 
	C68.472275,298.240021 70.072395,300.949615 71.768700,301.988190 
	C81.987076,308.244781 92.509483,314.002899 102.778198,320.180389 
	C105.786491,321.990143 108.019630,321.770874 110.980019,320.061768 
	C144.858154,300.502869 178.829849,281.106049 212.726624,261.579285 
	C215.165024,260.174591 217.091644,259.955933 219.560303,261.463440 
	C225.382599,265.019012 231.374756,268.295349 237.272354,271.728973 
	C243.002106,275.064911 242.837524,286.544098 237.041016,289.854248 
	C217.381180,301.081177 197.390259,311.778687 178.208679,323.770691 
	C169.099960,329.465363 161.510269,331.243195 152.997681,323.865540 
	C151.855316,322.875488 149.555649,321.753876 148.599899,322.249969 
	C141.648087,325.858154 134.903397,329.865326 127.320656,334.186676 
	C139.971832,341.476196 151.452225,348.206848 163.096573,354.640717 
	C164.416916,355.370239 166.983887,355.000702 168.426956,354.180481 
	C198.673538,336.989044 228.868469,319.705750 258.954437,302.235382 
	C260.672821,301.237518 262.328156,298.518250 262.389984,296.549194 
	C262.724487,285.895142 262.701172,275.220703 262.400604,264.564575 
	C262.348450,262.715240 260.825073,260.170166 259.224701,259.217865 
	C245.924484,251.303741 232.492035,243.606277 218.956985,236.100418 
	C217.492798,235.288437 214.799759,235.478134 213.230850,236.283127 
	C207.016464,239.471664 201.022476,243.089752 194.317459,246.927322 
M897.944214,280.575287 
	C899.362427,282.825745 900.616638,285.201508 902.224548,287.307098 
	C916.177856,305.579926 935.476074,310.468903 956.931213,307.423401 
	C964.748108,306.313812 968.945984,307.758759 971.852051,314.778473 
	C972.550659,316.465851 974.659729,318.665680 976.198059,318.728699 
	C985.283020,319.100983 994.390930,318.912140 1004.271301,318.912140 
	C1003.042725,316.722260 1002.243835,315.141205 1001.303223,313.649567 
	C997.664124,307.878387 993.803406,302.235626 990.445068,296.307220 
	C989.672485,294.943604 989.834839,292.026245 990.808167,290.857666 
	C999.578308,280.328033 1003.607178,268.074066 1004.767822,254.662918 
	C1007.889160,218.593536 988.704346,192.758972 955.114807,189.117233 
	C925.979736,185.958481 900.231812,198.766708 892.659729,230.706360 
	C888.673767,247.519379 889.999329,264.112244 897.944214,280.575287 
M804.607117,255.095459 
	C804.363770,256.063934 804.120361,257.032410 803.635315,258.962830 
	C802.052185,256.592407 801.022705,255.119217 800.062134,253.602310 
	C787.683960,234.055267 775.341675,214.485397 762.894897,194.982117 
	C761.906372,193.433121 760.257751,191.262787 758.838623,191.202545 
	C750.429016,190.845581 741.996643,191.026413 733.480347,191.026413 
	C733.480347,229.613480 733.480347,267.493866 733.480347,305.531677 
	C742.425293,305.531677 750.998596,305.531677 760.121460,305.531677 
	C760.121460,282.900146 760.121460,260.543640 760.121460,238.187119 
	C762.110962,239.294907 763.124023,240.697128 764.044128,242.157913 
	C776.640625,262.157349 789.194336,282.183899 801.870850,302.132446 
	C802.825195,303.634247 804.592346,305.582550 806.050293,305.642059 
	C814.321655,305.979858 822.613892,305.805603 831.016418,305.805603 
	C831.016418,267.317963 831.016418,229.290192 831.016418,191.379837 
	C822.066589,191.379837 813.508606,191.379837 805.062805,191.379837 
	C804.865173,192.068893 804.695984,192.384155 804.695435,192.699707 
	C804.658203,213.190811 804.634644,233.681915 804.607117,255.095459 
M408.446930,222.980728 
	C406.328430,218.132492 404.831238,212.880569 401.987457,208.503571 
	C387.042603,185.501160 349.522522,183.794754 330.604767,196.859085 
	C314.039978,208.298477 312.132202,237.721130 330.831024,248.294357 
	C336.410736,251.449402 342.597412,253.718445 348.740662,255.645309 
	C357.925964,258.526337 367.390747,260.511688 376.594543,263.340393 
	C381.488983,264.844666 385.043182,268.202057 384.773346,273.950867 
	C384.538910,278.945526 380.769318,282.915894 374.987671,284.647491 
	C361.121582,288.800476 349.290710,283.194611 343.209442,269.722290 
	C342.684479,268.559326 341.378632,266.943512 340.398987,266.917603 
	C331.984863,266.694702 323.562317,266.789612 314.682922,266.789612 
	C315.599060,280.241730 320.740448,290.502136 331.131836,298.024506 
	C339.181610,303.851746 348.393127,306.635925 358.075470,307.721313 
	C372.452301,309.332947 386.245605,307.857178 398.690308,299.370514 
	C415.268768,288.064819 416.955872,257.909363 399.723206,246.677826 
	C390.857971,240.899857 380.979065,238.378693 370.994659,235.760239 
	C363.788208,233.870331 356.492584,231.953323 349.724823,228.948975 
	C347.221924,227.837891 344.626526,223.495621 344.789612,220.790802 
	C344.951080,218.113327 348.019165,214.572464 350.712158,213.267990 
	C361.741669,207.925293 374.452209,212.718109 380.046295,223.496536 
	C380.756592,224.865051 382.407257,226.624161 383.683685,226.675537 
	C391.166534,226.976700 398.670654,226.921021 406.158478,226.690582 
	C407.009827,226.664398 407.804474,224.797134 408.446930,222.980728 
M1810.000000,203.514679 
	C1810.000000,225.700516 1810.000000,247.886368 1810.000000,270.072205 
	C1809.553955,270.159424 1809.107910,270.246643 1808.661987,270.333862 
	C1807.744629,268.823700 1806.794312,267.332520 1805.914795,265.800659 
	C1792.327759,242.132294 1778.776245,218.443375 1765.108887,194.821533 
	C1764.221069,193.286942 1762.510376,191.237671 1761.094360,191.165939 
	C1753.799194,190.796402 1746.475342,190.994522 1738.916870,190.994522 
	C1738.916870,229.425644 1738.916870,267.461731 1738.916870,305.447510 
	C1746.213501,305.447510 1753.119385,305.447510 1760.813110,305.447510 
	C1760.813110,278.845703 1760.813110,252.608414 1760.813110,226.371124 
	C1762.402100,227.446671 1763.093506,228.559174 1763.742310,229.696014 
	C1777.433472,253.689133 1791.098022,277.697510 1804.856323,301.652008 
	C1805.769287,303.241516 1807.332031,305.543274 1808.689087,305.612213 
	C1816.272583,305.997711 1823.885742,305.797577 1831.540283,305.797577 
	C1831.540283,267.217041 1831.540283,229.324310 1831.540283,191.316833 
	C1824.298218,191.316833 1817.398926,191.316833 1810.000000,191.316833 
	C1810.000000,195.265961 1810.000000,198.894379 1810.000000,203.514679 
M1160.209351,229.635361 
	C1159.708252,239.225494 1158.081543,248.912857 1158.900146,258.389008 
	C1162.518066,300.272827 1208.976440,322.496796 1244.617554,299.707550 
	C1260.340210,289.654358 1267.274780,274.355652 1268.973633,256.500549 
	C1270.913940,236.107819 1267.183228,217.095291 1251.517212,202.454895 
	C1221.954346,174.827042 1172.816406,189.172760 1160.209351,229.635361 
M1645.062866,304.356140 
	C1651.754639,305.533386 1658.413574,307.458466 1665.143921,307.753204 
	C1689.072632,308.801086 1707.970947,297.253174 1716.824951,276.637451 
	C1721.305908,266.203796 1722.798950,255.188049 1722.223022,243.892670 
	C1720.547241,211.024460 1700.730347,190.755386 1668.597290,188.983368 
	C1643.465088,187.597412 1623.144043,200.663315 1614.886353,223.777267 
	C1610.658813,235.610077 1609.728516,247.869492 1611.737183,260.242676 
	C1615.014893,280.431641 1624.550537,296.108154 1645.062866,304.356140 
M1057.533325,285.005249 
	C1062.316895,289.988190 1066.290771,296.370361 1072.034424,299.694153 
	C1089.957275,310.065948 1109.194458,310.984650 1128.096680,302.553619 
	C1140.461304,297.038574 1146.107056,286.272339 1146.190430,272.738190 
	C1146.271606,259.577179 1140.492798,249.808594 1128.323120,244.765915 
	C1120.545410,241.543152 1112.213867,239.664368 1104.149536,237.123444 
	C1097.519287,235.034393 1090.766235,233.223663 1084.354492,230.591003 
	C1080.076782,228.834610 1077.940918,224.902298 1078.233032,220.047241 
	C1078.520752,215.266678 1081.088501,212.010437 1085.245361,209.895660 
	C1098.156860,203.326965 1114.311279,209.131958 1120.146240,222.321548 
	C1120.653809,223.468857 1121.940796,225.049698 1122.915894,225.086044 
	C1129.491699,225.331207 1136.081177,225.213852 1143.009033,225.213852 
	C1141.909302,215.596191 1138.042969,208.020569 1131.702393,201.816544 
	C1117.200928,187.627518 1089.023193,184.598877 1071.684204,195.257248 
	C1060.711426,202.002350 1056.096924,211.987808 1056.673950,224.745193 
	C1057.232300,237.093811 1063.956421,244.892883 1074.847168,249.199905 
	C1081.765381,251.935898 1089.135742,253.517685 1096.276733,255.704254 
	C1103.399414,257.885162 1110.967529,259.252625 1117.479370,262.634521 
	C1127.079468,267.620270 1126.480103,280.939362 1117.077148,286.236664 
	C1102.284790,294.570190 1082.478394,287.528503 1076.270752,271.838165 
	C1075.761841,270.551941 1074.314087,268.765991 1073.236328,268.718719 
	C1066.631592,268.428986 1060.007812,268.573669 1052.043579,268.573669 
	C1053.953491,274.410400 1055.578003,279.374878 1057.533325,285.005249 
M1913.157349,263.196716 
	C1921.479248,270.662354 1920.069214,282.331543 1910.290161,286.925873 
	C1894.987549,294.115143 1876.911255,287.036346 1870.536499,271.459351 
	C1870.068359,270.315674 1868.758179,268.738342 1867.790283,268.702820 
	C1861.173828,268.459900 1854.544312,268.575439 1847.401123,268.575439 
	C1848.828491,283.662170 1855.708252,294.782562 1868.699219,301.190186 
	C1885.591187,309.522034 1903.302124,310.567596 1920.885864,303.273102 
	C1933.421143,298.072968 1939.842773,288.180969 1940.503906,274.545410 
	C1941.170898,260.788879 1935.839233,250.353027 1923.020874,244.917007 
	C1915.275146,241.632217 1906.938354,239.749985 1898.888672,237.170441 
	C1891.958008,234.949448 1884.594116,233.506226 1878.259155,230.142273 
	C1870.017944,225.766037 1870.811646,214.919571 1879.005737,210.309448 
	C1891.719482,203.156601 1908.620972,208.808228 1914.430176,222.070450 
	C1914.955200,223.269043 1916.135986,225.029053 1917.068115,225.064774 
	C1923.796509,225.322525 1930.539429,225.202927 1939.104736,225.202927 
	C1935.714600,218.121155 1933.612793,211.943512 1930.102295,206.710754 
	C1915.824341,185.427979 1879.810181,184.581726 1863.052612,197.240921 
	C1846.225708,209.952423 1846.789673,236.631180 1864.534424,246.753830 
	C1870.769775,250.310837 1878.098389,252.021698 1885.023926,254.281052 
	C1894.147949,257.257660 1903.366821,259.943878 1913.157349,263.196716 
M1436.665161,270.579041 
	C1435.425537,278.452271 1431.431519,284.237427 1423.709229,286.834198 
	C1402.811401,293.861572 1388.427124,283.631836 1388.383789,261.764709 
	C1388.340942,240.101181 1388.372925,218.437500 1388.372314,196.773880 
	C1388.372192,194.975983 1388.372192,193.178085 1388.372192,191.408783 
	C1380.760742,191.408783 1373.709961,191.408783 1366.326050,191.408783 
	C1366.326050,207.476974 1366.220947,223.119888 1366.360718,238.760620 
	C1366.464844,250.415070 1366.221313,262.130585 1367.334473,273.703308 
	C1368.712280,288.028351 1376.265137,298.624054 1389.963379,304.049896 
	C1400.598511,308.262390 1411.694214,308.441345 1422.940796,307.233551 
	C1443.353149,305.041412 1457.431641,292.256653 1458.369751,271.805756 
	C1459.582275,245.368607 1458.932617,218.845993 1459.065063,192.360107 
	C1459.066528,192.061462 1458.807617,191.761490 1458.640625,191.397552 
	C1451.620728,191.397552 1444.581421,191.397552 1437.252319,191.397552 
	C1437.252319,194.460938 1437.264771,197.109299 1437.250366,199.757538 
	C1437.124390,223.081879 1436.993652,246.406158 1436.665161,270.579041 
M720.220886,213.859497 
	C720.220886,206.400909 720.220886,198.942322 720.220886,191.431366 
	C694.050781,191.431366 668.213745,191.431366 642.432373,191.431366 
	C642.432373,229.721039 642.432373,267.578766 642.432373,305.496338 
	C651.415405,305.496338 659.982727,305.496338 669.024048,305.496338 
	C669.024048,290.439453 669.024048,275.694580 669.024048,260.480286 
	C684.567200,260.480286 699.639160,260.480286 714.988281,260.480286 
	C714.988281,252.275040 714.988281,244.552094 714.988281,236.324921 
	C699.596375,236.324921 684.530334,236.324921 669.246460,236.324921 
	C669.246460,229.090118 669.246460,222.362228 669.246460,215.064056 
	C671.643921,215.064056 673.765076,215.081345 675.885864,215.061295 
	C690.514038,214.923065 705.142151,214.777023 720.220886,213.859497 
M241.427521,189.179550 
	C217.428452,175.478485 193.459030,161.724716 169.370316,148.183136 
	C167.573425,147.173004 164.375656,146.712616 162.749115,147.629196 
	C132.146454,164.874542 101.675720,182.354218 71.217300,199.854355 
	C70.046623,200.526978 68.478401,201.867538 68.444183,202.939896 
	C68.203300,210.488983 68.316353,218.049347 68.316353,226.303299 
	C70.406815,225.240479 71.586723,224.702667 72.707619,224.061646 
	C102.334114,207.118713 131.982895,190.214203 161.532791,173.138596 
	C164.540298,171.400696 166.655243,171.451004 169.642288,173.177444 
	C199.191223,190.256332 228.838745,207.164642 258.467163,224.105865 
	C259.537140,224.717682 260.698120,225.170395 262.515289,226.026306 
	C262.515289,217.873047 262.653564,210.417908 262.375671,202.978348 
	C262.330688,201.774994 260.639465,200.305252 259.362122,199.532288 
	C253.666565,196.085693 247.844986,192.847321 241.427521,189.179550 
M1470.324707,191.433350 
	C1470.324707,197.670792 1470.324707,203.908234 1470.324707,210.666779 
	C1481.785522,210.666779 1493.041016,210.666779 1504.783203,210.666779 
	C1504.783203,242.579361 1504.783203,273.968536 1504.783203,305.389191 
	C1512.320190,305.389191 1519.345581,305.389191 1526.773438,305.389191 
	C1526.773438,273.718292 1526.773438,242.482437 1526.773438,210.693695 
	C1538.398682,210.693695 1549.626343,210.693695 1561.145752,210.693695 
	C1561.145752,203.894180 1561.145752,197.649994 1561.145752,191.086029 
	C1531.004028,191.086029 1501.071411,191.086029 1470.324707,191.433350 
M1307.187500,225.500488 
	C1307.187500,214.103165 1307.187500,202.705826 1307.187500,191.199677 
	C1299.579712,191.199677 1292.804443,191.199677 1285.813477,191.199677 
	C1285.813477,229.457504 1285.813477,267.500031 1285.813477,305.451965 
	C1309.207520,305.451965 1332.259766,305.451965 1355.215698,305.451965 
	C1355.215698,298.876099 1355.215698,292.678345 1355.215698,285.956116 
	C1338.988037,285.956116 1323.258667,285.956116 1307.187012,285.956116 
	C1307.187012,265.773682 1307.187012,246.137115 1307.187500,225.500488 
M620.304993,191.000427 
	C612.719238,191.000427 605.133423,191.000427 597.496216,191.000427 
	C597.496216,229.641327 597.496216,267.516724 597.496216,305.536865 
	C606.448181,305.536865 615.021667,305.536865 624.059875,305.536865 
	C624.059875,303.467224 624.059875,301.675293 624.059875,299.883331 
	C624.059875,276.730103 624.060059,253.576859 624.059814,230.423630 
	C624.059692,218.597153 624.063599,206.770676 624.053589,194.944199 
	C624.051941,192.995361 624.533081,190.659988 620.304993,191.000427 
M849.704529,278.499908 
	C849.704529,287.439575 849.704529,296.379242 849.704529,305.557709 
	C858.798767,305.557709 867.357788,305.557709 876.093384,305.557709 
	C876.093384,267.324890 876.093384,229.323242 876.093384,191.350433 
	C867.164307,191.350433 858.594177,191.350433 849.704468,191.350433 
	C849.704468,220.291916 849.704468,248.895889 849.704529,278.499908 
M1595.057007,228.500671 
	C1595.057007,216.109589 1595.057007,203.718506 1595.057007,191.348877 
	C1587.377319,191.348877 1580.494141,191.348877 1573.532959,191.348877 
	C1573.532959,229.587463 1573.532959,267.452850 1573.532959,305.547791 
	C1580.711182,305.547791 1587.608521,305.547791 1595.056519,305.547791 
	C1595.056519,280.015045 1595.056519,254.757889 1595.057007,228.500671 
z"/>
<path fill="#0617FF" opacity="1.000000" stroke="none" 
	d="
M443.224487,295.036316 
	C434.965973,260.326233 426.772430,226.027985 418.480042,191.316132 
	C428.077820,191.316132 437.173828,191.316132 446.783478,191.316132 
	C453.243896,221.376724 459.723999,251.528915 466.204071,281.681091 
	C466.716736,281.714233 467.229370,281.747375 467.742035,281.780518 
	C468.772003,276.453705 469.885162,271.141418 470.817596,265.797577 
	C474.939209,242.176300 478.961884,218.537506 483.210358,194.939255 
	C483.473480,193.477692 485.336609,191.204987 486.502350,191.175598 
	C497.811523,190.890472 509.130798,191.004303 520.839478,191.004303 
	C526.278748,222.057220 531.671448,252.843933 537.064087,283.630646 
	C537.405396,283.675079 537.746643,283.719513 538.087952,283.763947 
	C544.687134,253.021286 551.286255,222.278625 557.934753,191.306213 
	C567.291138,191.306213 576.354797,191.306213 586.216919,191.306213 
	C577.087952,229.590637 568.040405,267.533783 558.912842,305.812317 
	C544.966797,305.812317 531.328186,305.890961 517.695007,305.654877 
	C516.664917,305.637024 514.976440,303.488190 514.768433,302.147675 
	C511.447845,280.752319 508.328766,259.325714 505.137848,237.910126 
	C504.487427,233.545013 503.731171,229.195694 503.023743,224.839081 
	C502.545471,224.831726 502.067200,224.824371 501.588928,224.817017 
	C497.551483,251.687195 493.514069,278.557373 489.453369,305.582520 
	C474.873779,305.582520 460.755920,305.582520 445.926575,305.582520 
	C445.098358,302.399750 444.193909,298.923950 443.224487,295.036316 
z"/>
<path fill="#FF9D06" opacity="1.000000" stroke="none" 
	d="
M194.632141,246.737976 
	C201.022476,243.089752 207.016464,239.471664 213.230850,236.283127 
	C214.799759,235.478134 217.492798,235.288437 218.956985,236.100418 
	C232.492035,243.606277 245.924484,251.303741 259.224701,259.217865 
	C260.825073,260.170166 262.348450,262.715240 262.400604,264.564575 
	C262.701172,275.220703 262.724487,285.895142 262.389984,296.549194 
	C262.328156,298.518250 260.672821,301.237518 258.954437,302.235382 
	C228.868469,319.705750 198.673538,336.989044 168.426956,354.180481 
	C166.983887,355.000702 164.416916,355.370239 163.096573,354.640717 
	C151.452225,348.206848 139.971832,341.476196 127.320656,334.186676 
	C134.903397,329.865326 141.648087,325.858154 148.599899,322.249969 
	C149.555649,321.753876 151.855316,322.875488 152.997681,323.865540 
	C161.510269,331.243195 169.099960,329.465363 178.208679,323.770691 
	C197.390259,311.778687 217.381180,301.081177 237.041016,289.854248 
	C242.837524,286.544098 243.002106,275.064911 237.272354,271.728973 
	C231.374756,268.295349 225.382599,265.019012 219.560303,261.463440 
	C217.091644,259.955933 215.165024,260.174591 212.726624,261.579285 
	C178.829849,281.106049 144.858154,300.502869 110.980019,320.061768 
	C108.019630,321.770874 105.786491,321.990143 102.778198,320.180389 
	C92.509483,314.002899 81.987076,308.244781 71.768700,301.988190 
	C70.072395,300.949615 68.472275,298.240021 68.426399,296.265472 
	C68.128395,283.441528 68.125534,270.603912 68.426834,257.780151 
	C68.473244,255.804840 70.100525,253.043381 71.811378,252.053375 
	C99.621315,235.961014 127.590660,220.144348 155.435959,204.112473 
	C158.587265,202.298096 160.973907,202.282700 164.073059,204.162735 
	C173.576172,209.927643 183.263184,215.389389 194.029419,221.636719 
	C186.399002,225.849777 179.823547,229.908325 172.829041,233.027039 
	C171.178635,233.762924 167.824615,231.744797 165.767441,230.275238 
	C161.721756,227.385193 158.408585,227.503326 154.005692,230.087234 
	C134.337616,241.629730 114.458252,252.815994 94.541779,263.927643 
	C91.312828,265.729095 89.893799,267.796753 90.288589,271.412537 
	C90.522324,273.553223 90.614113,275.785248 90.279121,277.898407 
	C89.140869,285.078552 91.984375,289.149567 98.482323,292.741577 
	C104.694931,296.175873 109.036896,296.138916 115.116982,292.537659 
	C141.327072,277.013306 167.885712,262.077423 194.632141,246.737976 
z"/>
<path fill="#0517FF" opacity="1.000000" stroke="none" 
	d="
M897.770386,280.247101 
	C889.999329,264.112244 888.673767,247.519379 892.659729,230.706360 
	C900.231812,198.766708 925.979736,185.958481 955.114807,189.117233 
	C988.704346,192.758972 1007.889160,218.593536 1004.767822,254.662918 
	C1003.607178,268.074066 999.578308,280.328033 990.808167,290.857666 
	C989.834839,292.026245 989.672485,294.943604 990.445068,296.307220 
	C993.803406,302.235626 997.664124,307.878387 1001.303223,313.649567 
	C1002.243835,315.141205 1003.042725,316.722260 1004.271301,318.912140 
	C994.390930,318.912140 985.283020,319.100983 976.198059,318.728699 
	C974.659729,318.665680 972.550659,316.465851 971.852051,314.778473 
	C968.945984,307.758759 964.748108,306.313812 956.931213,307.423401 
	C935.476074,310.468903 916.177856,305.579926 902.224548,287.307098 
	C900.616638,285.201508 899.362427,282.825745 897.770386,280.247101 
M919.085266,249.411484 
	C919.722961,253.848969 919.977844,258.383148 921.069702,262.705902 
	C924.397949,275.882233 934.077271,283.721558 947.079285,284.211365 
	C959.794128,284.690308 969.753235,277.664917 974.002686,264.681000 
	C977.911682,252.737640 977.783752,240.700623 972.819031,229.062637 
	C968.522217,218.990280 960.677612,213.500336 949.624756,212.938156 
	C938.730408,212.384033 930.170349,216.457016 924.452087,225.941452 
	C920.267700,232.881821 919.336243,240.615128 919.085266,249.411484 
z"/>
<path fill="#0416FF" opacity="1.000000" stroke="none" 
	d="
M804.608459,254.634247 
	C804.634644,233.681915 804.658203,213.190811 804.695435,192.699707 
	C804.695984,192.384155 804.865173,192.068893 805.062805,191.379837 
	C813.508606,191.379837 822.066589,191.379837 831.016418,191.379837 
	C831.016418,229.290192 831.016418,267.317963 831.016418,305.805603 
	C822.613892,305.805603 814.321655,305.979858 806.050293,305.642059 
	C804.592346,305.582550 802.825195,303.634247 801.870850,302.132446 
	C789.194336,282.183899 776.640625,262.157349 764.044128,242.157913 
	C763.124023,240.697128 762.110962,239.294907 760.121460,238.187119 
	C760.121460,260.543640 760.121460,282.900146 760.121460,305.531677 
	C750.998596,305.531677 742.425293,305.531677 733.480347,305.531677 
	C733.480347,267.493866 733.480347,229.613480 733.480347,191.026413 
	C741.996643,191.026413 750.429016,190.845581 758.838623,191.202545 
	C760.257751,191.262787 761.906372,193.433121 762.894897,194.982117 
	C775.341675,214.485397 787.683960,234.055267 800.062134,253.602310 
	C801.022705,255.119217 802.052185,256.592407 803.635315,258.962830 
	C804.120361,257.032410 804.363770,256.063934 804.608459,254.634247 
z"/>
<path fill="#0617FF" opacity="1.000000" stroke="none" 
	d="
M408.536163,223.382141 
	C407.804474,224.797134 407.009827,226.664398 406.158478,226.690582 
	C398.670654,226.921021 391.166534,226.976700 383.683685,226.675537 
	C382.407257,226.624161 380.756592,224.865051 380.046295,223.496536 
	C374.452209,212.718109 361.741669,207.925293 350.712158,213.267990 
	C348.019165,214.572464 344.951080,218.113327 344.789612,220.790802 
	C344.626526,223.495621 347.221924,227.837891 349.724823,228.948975 
	C356.492584,231.953323 363.788208,233.870331 370.994659,235.760239 
	C380.979065,238.378693 390.857971,240.899857 399.723206,246.677826 
	C416.955872,257.909363 415.268768,288.064819 398.690308,299.370514 
	C386.245605,307.857178 372.452301,309.332947 358.075470,307.721313 
	C348.393127,306.635925 339.181610,303.851746 331.131836,298.024506 
	C320.740448,290.502136 315.599060,280.241730 314.682922,266.789612 
	C323.562317,266.789612 331.984863,266.694702 340.398987,266.917603 
	C341.378632,266.943512 342.684479,268.559326 343.209442,269.722290 
	C349.290710,283.194611 361.121582,288.800476 374.987671,284.647491 
	C380.769318,282.915894 384.538910,278.945526 384.773346,273.950867 
	C385.043182,268.202057 381.488983,264.844666 376.594543,263.340393 
	C367.390747,260.511688 357.925964,258.526337 348.740662,255.645309 
	C342.597412,253.718445 336.410736,251.449402 330.831024,248.294357 
	C312.132202,237.721130 314.039978,208.298477 330.604767,196.859085 
	C349.522522,183.794754 387.042603,185.501160 401.987457,208.503571 
	C404.831238,212.880569 406.328430,218.132492 408.536163,223.382141 
z"/>
<path fill="#FF0707" opacity="1.000000" stroke="none" 
	d="
M1810.000000,203.018738 
	C1810.000000,198.894379 1810.000000,195.265961 1810.000000,191.316833 
	C1817.398926,191.316833 1824.298218,191.316833 1831.540283,191.316833 
	C1831.540283,229.324310 1831.540283,267.217041 1831.540283,305.797577 
	C1823.885742,305.797577 1816.272583,305.997711 1808.689087,305.612213 
	C1807.332031,305.543274 1805.769287,303.241516 1804.856323,301.652008 
	C1791.098022,277.697510 1777.433472,253.689133 1763.742310,229.696014 
	C1763.093506,228.559174 1762.402100,227.446671 1760.813110,226.371124 
	C1760.813110,252.608414 1760.813110,278.845703 1760.813110,305.447510 
	C1753.119385,305.447510 1746.213501,305.447510 1738.916870,305.447510 
	C1738.916870,267.461731 1738.916870,229.425644 1738.916870,190.994522 
	C1746.475342,190.994522 1753.799194,190.796402 1761.094360,191.165939 
	C1762.510376,191.237671 1764.221069,193.286942 1765.108887,194.821533 
	C1778.776245,218.443375 1792.327759,242.132294 1805.914795,265.800659 
	C1806.794312,267.332520 1807.744629,268.823700 1808.661987,270.333862 
	C1809.107910,270.246643 1809.553955,270.159424 1810.000000,270.072205 
	C1810.000000,247.886368 1810.000000,225.700516 1810.000000,203.018738 
z"/>
<path fill="#FF0606" opacity="1.000000" stroke="none" 
	d="
M1160.301270,229.235413 
	C1172.816406,189.172760 1221.954346,174.827042 1251.517212,202.454895 
	C1267.183228,217.095291 1270.913940,236.107819 1268.973633,256.500549 
	C1267.274780,274.355652 1260.340210,289.654358 1244.617554,299.707550 
	C1208.976440,322.496796 1162.518066,300.272827 1158.900146,258.389008 
	C1158.081543,248.912857 1159.708252,239.225494 1160.301270,229.235413 
M1189.623779,219.198059 
	C1178.599854,235.099014 1178.223022,252.137314 1184.928711,269.552399 
	C1189.648315,281.809174 1200.615112,288.553833 1213.903076,288.487762 
	C1227.070190,288.422302 1237.978271,281.288330 1242.850708,269.316254 
	C1247.523682,257.834412 1247.972168,245.995850 1245.010376,234.053772 
	C1242.046875,222.105209 1235.335083,213.101608 1223.045776,209.842407 
	C1210.607422,206.543686 1199.273804,208.934494 1189.623779,219.198059 
z"/>
<path fill="#FF0606" opacity="1.000000" stroke="none" 
	d="
M1644.699341,304.224670 
	C1624.550537,296.108154 1615.014893,280.431641 1611.737183,260.242676 
	C1609.728516,247.869492 1610.658813,235.610077 1614.886353,223.777267 
	C1623.144043,200.663315 1643.465088,187.597412 1668.597290,188.983368 
	C1700.730347,190.755386 1720.547241,211.024460 1722.223022,243.892670 
	C1722.798950,255.188049 1721.305908,266.203796 1716.824951,276.637451 
	C1707.970947,297.253174 1689.072632,308.801086 1665.143921,307.753204 
	C1658.413574,307.458466 1651.754639,305.533386 1644.699341,304.224670 
M1648.489136,213.863663 
	C1645.841187,216.581238 1642.529175,218.907181 1640.656372,222.081955 
	C1630.931519,238.566910 1630.931152,255.774673 1639.253174,272.589417 
	C1645.166016,284.536407 1656.055054,289.285889 1669.135864,288.345795 
	C1682.363037,287.395233 1691.399414,280.352234 1696.151367,267.997040 
	C1700.540405,256.585876 1700.744019,244.896530 1697.632935,233.177704 
	C1691.737915,210.972687 1668.973999,201.779678 1648.489136,213.863663 
z"/>
<path fill="#FF0707" opacity="1.000000" stroke="none" 
	d="
M1057.367920,284.672302 
	C1055.578003,279.374878 1053.953491,274.410400 1052.043579,268.573669 
	C1060.007812,268.573669 1066.631592,268.428986 1073.236328,268.718719 
	C1074.314087,268.765991 1075.761841,270.551941 1076.270752,271.838165 
	C1082.478394,287.528503 1102.284790,294.570190 1117.077148,286.236664 
	C1126.480103,280.939362 1127.079468,267.620270 1117.479370,262.634521 
	C1110.967529,259.252625 1103.399414,257.885162 1096.276733,255.704254 
	C1089.135742,253.517685 1081.765381,251.935898 1074.847168,249.199905 
	C1063.956421,244.892883 1057.232300,237.093811 1056.673950,224.745193 
	C1056.096924,211.987808 1060.711426,202.002350 1071.684204,195.257248 
	C1089.023193,184.598877 1117.200928,187.627518 1131.702393,201.816544 
	C1138.042969,208.020569 1141.909302,215.596191 1143.009033,225.213852 
	C1136.081177,225.213852 1129.491699,225.331207 1122.915894,225.086044 
	C1121.940796,225.049698 1120.653809,223.468857 1120.146240,222.321548 
	C1114.311279,209.131958 1098.156860,203.326965 1085.245361,209.895660 
	C1081.088501,212.010437 1078.520752,215.266678 1078.233032,220.047241 
	C1077.940918,224.902298 1080.076782,228.834610 1084.354492,230.591003 
	C1090.766235,233.223663 1097.519287,235.034393 1104.149536,237.123444 
	C1112.213867,239.664368 1120.545410,241.543152 1128.323120,244.765915 
	C1140.492798,249.808594 1146.271606,259.577179 1146.190430,272.738190 
	C1146.107056,286.272339 1140.461304,297.038574 1128.096680,302.553619 
	C1109.194458,310.984650 1089.957275,310.065948 1072.034424,299.694153 
	C1066.290771,296.370361 1062.316895,289.988190 1057.367920,284.672302 
z"/>
<path fill="#FF0707" opacity="1.000000" stroke="none" 
	d="
M1912.851074,262.975830 
	C1903.366821,259.943878 1894.147949,257.257660 1885.023926,254.281052 
	C1878.098389,252.021698 1870.769775,250.310837 1864.534424,246.753830 
	C1846.789673,236.631180 1846.225708,209.952423 1863.052612,197.240921 
	C1879.810181,184.581726 1915.824341,185.427979 1930.102295,206.710754 
	C1933.612793,211.943512 1935.714600,218.121155 1939.104736,225.202927 
	C1930.539429,225.202927 1923.796509,225.322525 1917.068115,225.064774 
	C1916.135986,225.029053 1914.955200,223.269043 1914.430176,222.070450 
	C1908.620972,208.808228 1891.719482,203.156601 1879.005737,210.309448 
	C1870.811646,214.919571 1870.017944,225.766037 1878.259155,230.142273 
	C1884.594116,233.506226 1891.958008,234.949448 1898.888672,237.170441 
	C1906.938354,239.749985 1915.275146,241.632217 1923.020874,244.917007 
	C1935.839233,250.353027 1941.170898,260.788879 1940.503906,274.545410 
	C1939.842773,288.180969 1933.421143,298.072968 1920.885864,303.273102 
	C1903.302124,310.567596 1885.591187,309.522034 1868.699219,301.190186 
	C1855.708252,294.782562 1848.828491,283.662170 1847.401123,268.575439 
	C1854.544312,268.575439 1861.173828,268.459900 1867.790283,268.702820 
	C1868.758179,268.738342 1870.068359,270.315674 1870.536499,271.459351 
	C1876.911255,287.036346 1894.987549,294.115143 1910.290161,286.925873 
	C1920.069214,282.331543 1921.479248,270.662354 1912.851074,262.975830 
z"/>
<path fill="#FF0808" opacity="1.000000" stroke="none" 
	d="
M1436.764771,270.154755 
	C1436.993652,246.406158 1437.124390,223.081879 1437.250366,199.757538 
	C1437.264771,197.109299 1437.252319,194.460938 1437.252319,191.397552 
	C1444.581421,191.397552 1451.620728,191.397552 1458.640625,191.397552 
	C1458.807617,191.761490 1459.066528,192.061462 1459.065063,192.360107 
	C1458.932617,218.845993 1459.582275,245.368607 1458.369751,271.805756 
	C1457.431641,292.256653 1443.353149,305.041412 1422.940796,307.233551 
	C1411.694214,308.441345 1400.598511,308.262390 1389.963379,304.049896 
	C1376.265137,298.624054 1368.712280,288.028351 1367.334473,273.703308 
	C1366.221313,262.130585 1366.464844,250.415070 1366.360718,238.760620 
	C1366.220947,223.119888 1366.326050,207.476974 1366.326050,191.408783 
	C1373.709961,191.408783 1380.760742,191.408783 1388.372192,191.408783 
	C1388.372192,193.178085 1388.372192,194.975983 1388.372314,196.773880 
	C1388.372925,218.437500 1388.340942,240.101181 1388.383789,261.764709 
	C1388.427124,283.631836 1402.811401,293.861572 1423.709229,286.834198 
	C1431.431519,284.237427 1435.425537,278.452271 1436.764771,270.154755 
z"/>
<path fill="#0516FF" opacity="1.000000" stroke="none" 
	d="
M719.995605,214.246490 
	C705.142151,214.777023 690.514038,214.923065 675.885864,215.061295 
	C673.765076,215.081345 671.643921,215.064056 669.246460,215.064056 
	C669.246460,222.362228 669.246460,229.090118 669.246460,236.324921 
	C684.530334,236.324921 699.596375,236.324921 714.988281,236.324921 
	C714.988281,244.552094 714.988281,252.275040 714.988281,260.480286 
	C699.639160,260.480286 684.567200,260.480286 669.024048,260.480286 
	C669.024048,275.694580 669.024048,290.439453 669.024048,305.496338 
	C659.982727,305.496338 651.415405,305.496338 642.432373,305.496338 
	C642.432373,267.578766 642.432373,229.721039 642.432373,191.431366 
	C668.213745,191.431366 694.050781,191.431366 720.220886,191.431366 
	C720.220886,198.942322 720.220886,206.400909 719.995605,214.246490 
z"/>
<path fill="#FF9D06" opacity="1.000000" stroke="none" 
	d="
M241.748230,189.356628 
	C247.844986,192.847321 253.666565,196.085693 259.362122,199.532288 
	C260.639465,200.305252 262.330688,201.774994 262.375671,202.978348 
	C262.653564,210.417908 262.515289,217.873047 262.515289,226.026306 
	C260.698120,225.170395 259.537140,224.717682 258.467163,224.105865 
	C228.838745,207.164642 199.191223,190.256332 169.642288,173.177444 
	C166.655243,171.451004 164.540298,171.400696 161.532791,173.138596 
	C131.982895,190.214203 102.334114,207.118713 72.707619,224.061646 
	C71.586723,224.702667 70.406815,225.240479 68.316353,226.303299 
	C68.316353,218.049347 68.203300,210.488983 68.444183,202.939896 
	C68.478401,201.867538 70.046623,200.526978 71.217300,199.854355 
	C101.675720,182.354218 132.146454,164.874542 162.749115,147.629196 
	C164.375656,146.712616 167.573425,147.173004 169.370316,148.183136 
	C193.459030,161.724716 217.428452,175.478485 241.748230,189.356628 
z"/>
<path fill="#FF0909" opacity="1.000000" stroke="none" 
	d="
M1470.731689,191.259689 
	C1501.071411,191.086029 1531.004028,191.086029 1561.145752,191.086029 
	C1561.145752,197.649994 1561.145752,203.894180 1561.145752,210.693695 
	C1549.626343,210.693695 1538.398682,210.693695 1526.773438,210.693695 
	C1526.773438,242.482437 1526.773438,273.718292 1526.773438,305.389191 
	C1519.345581,305.389191 1512.320190,305.389191 1504.783203,305.389191 
	C1504.783203,273.968536 1504.783203,242.579361 1504.783203,210.666779 
	C1493.041016,210.666779 1481.785522,210.666779 1470.324707,210.666779 
	C1470.324707,203.908234 1470.324707,197.670792 1470.731689,191.259689 
z"/>
<path fill="#FF0606" opacity="1.000000" stroke="none" 
	d="
M1307.187256,226.000519 
	C1307.187012,246.137115 1307.187012,265.773682 1307.187012,285.956116 
	C1323.258667,285.956116 1338.988037,285.956116 1355.215698,285.956116 
	C1355.215698,292.678345 1355.215698,298.876099 1355.215698,305.451965 
	C1332.259766,305.451965 1309.207520,305.451965 1285.813477,305.451965 
	C1285.813477,267.500031 1285.813477,229.457504 1285.813477,191.199677 
	C1292.804443,191.199677 1299.579712,191.199677 1307.187500,191.199677 
	C1307.187500,202.705826 1307.187500,214.103165 1307.187256,226.000519 
z"/>
<path fill="#0617FF" opacity="1.000000" stroke="none" 
	d="
M620.784668,191.002380 
	C624.533081,190.659988 624.051941,192.995361 624.053589,194.944199 
	C624.063599,206.770676 624.059692,218.597153 624.059814,230.423630 
	C624.060059,253.576859 624.059875,276.730103 624.059875,299.883331 
	C624.059875,301.675293 624.059875,303.467224 624.059875,305.536865 
	C615.021667,305.536865 606.448181,305.536865 597.496216,305.536865 
	C597.496216,267.516724 597.496216,229.641327 597.496216,191.000427 
	C605.133423,191.000427 612.719238,191.000427 620.784668,191.002380 
z"/>
<path fill="#0113FF" opacity="1.000000" stroke="none" 
	d="
M849.704468,277.999878 
	C849.704468,248.895889 849.704468,220.291916 849.704468,191.350433 
	C858.594177,191.350433 867.164307,191.350433 876.093384,191.350433 
	C876.093384,229.323242 876.093384,267.324890 876.093384,305.557709 
	C867.357788,305.557709 858.798767,305.557709 849.704529,305.557709 
	C849.704529,296.379242 849.704529,287.439575 849.704468,277.999878 
z"/>
<path fill="#FF0909" opacity="1.000000" stroke="none" 
	d="
M1595.056763,229.000702 
	C1595.056519,254.757889 1595.056519,280.015045 1595.056519,305.547791 
	C1587.608521,305.547791 1580.711182,305.547791 1573.532959,305.547791 
	C1573.532959,267.452850 1573.532959,229.587463 1573.532959,191.348877 
	C1580.494141,191.348877 1587.377319,191.348877 1595.057007,191.348877 
	C1595.057007,203.718506 1595.057007,216.109589 1595.056763,229.000702 
z"/>
<path fill="#FBFBFF" opacity="1.000000" stroke="none" 
	d="
M919.078247,248.955368 
	C919.336243,240.615128 920.267700,232.881821 924.452087,225.941452 
	C930.170349,216.457016 938.730408,212.384033 949.624756,212.938156 
	C960.677612,213.500336 968.522217,218.990280 972.819031,229.062637 
	C977.783752,240.700623 977.911682,252.737640 974.002686,264.681000 
	C969.753235,277.664917 959.794128,284.690308 947.079285,284.211365 
	C934.077271,283.721558 924.397949,275.882233 921.069702,262.705902 
	C919.977844,258.383148 919.722961,253.848969 919.078247,248.955368 
z"/>
<path fill="#FFFBFB" opacity="1.000000" stroke="none" 
	d="
M1189.877563,218.941589 
	C1199.273804,208.934494 1210.607422,206.543686 1223.045776,209.842407 
	C1235.335083,213.101608 1242.046875,222.105209 1245.010376,234.053772 
	C1247.972168,245.995850 1247.523682,257.834412 1242.850708,269.316254 
	C1237.978271,281.288330 1227.070190,288.422302 1213.903076,288.487762 
	C1200.615112,288.553833 1189.648315,281.809174 1184.928711,269.552399 
	C1178.223022,252.137314 1178.599854,235.099014 1189.877563,218.941589 
z"/>
<path fill="#FFFBFB" opacity="1.000000" stroke="none" 
	d="
M1648.795898,213.665344 
	C1668.973999,201.779678 1691.737915,210.972687 1697.632935,233.177704 
	C1700.744019,244.896530 1700.540405,256.585876 1696.151367,267.997040 
	C1691.399414,280.352234 1682.363037,287.395233 1669.135864,288.345795 
	C1656.055054,289.285889 1645.166016,284.536407 1639.253174,272.589417 
	C1630.931152,255.774673 1630.931519,238.566910 1640.656372,222.081955 
	C1642.529175,218.907181 1645.841187,216.581238 1648.795898,213.665344 
z"/>
</svg>