<svg xmlns="http://www.w3.org/2000/svg" xmlns:xlink="http://www.w3.org/1999/xlink" width="500" zoomAndPan="magnify" viewBox="0 0 375 48.75" height="65" preserveAspectRatio="xMidYMid meet" version="1.0"><defs><g/><clipPath id="64fd3cae6f"><path d="M 0.957031 0 L 374.042969 0 L 374.042969 48.265625 L 0.957031 48.265625 Z M 0.957031 0 " clip-rule="nonzero"/></clipPath><clipPath id="870a46d0c7"><path d="M 25.089844 0 L 349.910156 0 C 356.308594 0 362.449219 2.542969 366.976562 7.070312 C 371.5 11.59375 374.042969 17.734375 374.042969 24.132812 C 374.042969 30.535156 371.5 36.671875 366.976562 41.199219 C 362.449219 45.726562 356.308594 48.265625 349.910156 48.265625 L 25.089844 48.265625 C 18.691406 48.265625 12.550781 45.726562 8.023438 41.199219 C 3.5 36.671875 0.957031 30.535156 0.957031 24.132812 C 0.957031 17.734375 3.5 11.59375 8.023438 7.070312 C 12.550781 2.542969 18.691406 0 25.089844 0 Z M 25.089844 0 " clip-rule="nonzero"/></clipPath><clipPath id="3809ac383e"><path d="M 17.441406 6.003906 L 51.097656 6.003906 L 51.097656 44 L 17.441406 44 Z M 17.441406 6.003906 " clip-rule="nonzero"/></clipPath></defs><g clip-path="url(#64fd3cae6f)"><g clip-path="url(#870a46d0c7)"><path fill="#ffffff" d="M 0.957031 0 L 374.085938 0 L 374.085938 48.265625 L 0.957031 48.265625 Z M 0.957031 0 " fill-opacity="1" fill-rule="nonzero"/></g></g><g fill="#0012ff" fill-opacity="1"><g transform="translate(60.693935, 34.571393)"><g><path d="M 10.265625 0.453125 C 9.296875 0.453125 8.28125 0.332031 7.21875 0.09375 C 6.15625 -0.144531 5.15625 -0.539062 4.21875 -1.09375 C 3.289062 -1.65625 2.515625 -2.414062 1.890625 -3.375 C 1.273438 -4.34375 0.921875 -5.546875 0.828125 -6.984375 L 5.8125 -6.984375 C 6.050781 -6.078125 6.398438 -5.375 6.859375 -4.875 C 7.316406 -4.382812 7.84375 -4.046875 8.4375 -3.859375 C 9.03125 -3.671875 9.628906 -3.578125 10.234375 -3.578125 C 10.796875 -3.578125 11.316406 -3.65625 11.796875 -3.8125 C 12.285156 -3.976562 12.679688 -4.226562 12.984375 -4.5625 C 13.285156 -4.894531 13.4375 -5.332031 13.4375 -5.875 C 13.4375 -6.414062 13.226562 -6.84375 12.8125 -7.15625 C 12.40625 -7.46875 11.859375 -7.722656 11.171875 -7.921875 C 10.492188 -8.117188 9.75 -8.304688 8.9375 -8.484375 C 8.082031 -8.679688 7.207031 -8.90625 6.3125 -9.15625 C 5.425781 -9.40625 4.609375 -9.75 3.859375 -10.1875 C 3.117188 -10.632812 2.519531 -11.21875 2.0625 -11.9375 C 1.601562 -12.65625 1.375 -13.578125 1.375 -14.703125 C 1.375 -16.117188 1.710938 -17.289062 2.390625 -18.21875 C 3.078125 -19.144531 4 -19.835938 5.15625 -20.296875 C 6.3125 -20.753906 7.59375 -20.984375 9 -20.984375 C 10.4375 -20.984375 11.78125 -20.726562 13.03125 -20.21875 C 14.289062 -19.71875 15.34375 -18.960938 16.1875 -17.953125 C 17.03125 -16.941406 17.5625 -15.671875 17.78125 -14.140625 L 12.796875 -14.140625 C 12.554688 -15.023438 12.09375 -15.710938 11.40625 -16.203125 C 10.726562 -16.691406 9.890625 -16.9375 8.890625 -16.9375 C 8.203125 -16.9375 7.578125 -16.789062 7.015625 -16.5 C 6.453125 -16.21875 6.171875 -15.753906 6.171875 -15.109375 C 6.171875 -14.628906 6.367188 -14.234375 6.765625 -13.921875 C 7.160156 -13.617188 7.6875 -13.375 8.34375 -13.1875 C 9.007812 -13 9.726562 -12.816406 10.5 -12.640625 C 11.363281 -12.441406 12.253906 -12.210938 13.171875 -11.953125 C 14.085938 -11.691406 14.929688 -11.332031 15.703125 -10.875 C 16.472656 -10.414062 17.097656 -9.800781 17.578125 -9.03125 C 18.054688 -8.269531 18.296875 -7.296875 18.296875 -6.109375 C 18.296875 -4.765625 17.96875 -3.601562 17.3125 -2.625 C 16.664062 -1.644531 15.742188 -0.882812 14.546875 -0.34375 C 13.359375 0.1875 11.929688 0.453125 10.265625 0.453125 Z M 10.265625 0.453125 "/></g></g></g><g fill="#0012ff" fill-opacity="1"><g transform="translate(79.874726, 34.571393)"><g><path d="M 13.015625 0 L 5.203125 0 L 0.296875 -20.546875 L 5.359375 -20.546875 L 9.03125 -3.453125 L 12.015625 -20.546875 L 18.640625 -20.546875 L 21.625 -3.421875 L 25.296875 -20.546875 L 30.359375 -20.546875 L 25.453125 0 L 17.640625 0 L 15.328125 -15.515625 Z M 13.015625 0 "/></g></g></g><g fill="#0012ff" fill-opacity="1"><g transform="translate(110.531668, 34.571393)"><g><path d="M 6.4375 0 L 1.609375 0 L 1.609375 -20.546875 L 6.4375 -20.546875 Z M 6.4375 0 "/></g></g></g><g fill="#0012ff" fill-opacity="1"><g transform="translate(118.613468, 34.571393)"><g><path d="M 6.4375 0 L 1.609375 0 L 1.609375 -20.546875 L 15.65625 -20.546875 L 15.65625 -16.25 L 6.4375 -16.25 L 6.4375 -12.421875 L 14.765625 -12.421875 L 14.765625 -8.140625 L 6.4375 -8.140625 Z M 6.4375 0 "/></g></g></g><g fill="#0012ff" fill-opacity="1"><g transform="translate(134.938689, 34.571393)"><g><path d="M 6.4375 0 L 1.609375 0 L 1.609375 -20.546875 L 6.515625 -20.546875 L 14.40625 -8.078125 L 14.40625 -20.546875 L 19.234375 -20.546875 L 19.234375 0 L 14.328125 0 L 6.4375 -12.546875 Z M 6.4375 0 "/></g></g></g><g fill="#0012ff" fill-opacity="1"><g transform="translate(155.789715, 34.571393)"><g><path d="M 6.4375 0 L 1.609375 0 L 1.609375 -20.546875 L 6.4375 -20.546875 Z M 6.4375 0 "/></g></g></g><g fill="#0012ff" fill-opacity="1"><g transform="translate(163.871515, 34.571393)"><g><path d="M 21.359375 -10.296875 C 21.359375 -8.734375 21.109375 -7.25 20.609375 -5.84375 C 20.117188 -4.445312 19.375 -3.242188 18.375 -2.234375 L 21.28125 2.34375 L 15.84375 2.34375 L 14.4375 0.03125 C 13.9375 0.15625 13.410156 0.253906 12.859375 0.328125 C 12.316406 0.410156 11.738281 0.453125 11.125 0.453125 C 9.363281 0.453125 7.835938 0.164062 6.546875 -0.40625 C 5.253906 -0.976562 4.1875 -1.757812 3.34375 -2.75 C 2.507812 -3.75 1.882812 -4.894531 1.46875 -6.1875 C 1.0625 -7.488281 0.859375 -8.859375 0.859375 -10.296875 C 0.859375 -11.722656 1.0625 -13.078125 1.46875 -14.359375 C 1.882812 -15.648438 2.507812 -16.789062 3.34375 -17.78125 C 4.1875 -18.78125 5.253906 -19.5625 6.546875 -20.125 C 7.835938 -20.695312 9.363281 -20.984375 11.125 -20.984375 C 12.863281 -20.984375 14.375 -20.695312 15.65625 -20.125 C 16.945312 -19.5625 18.015625 -18.78125 18.859375 -17.78125 C 19.703125 -16.789062 20.328125 -15.648438 20.734375 -14.359375 C 21.148438 -13.078125 21.359375 -11.722656 21.359375 -10.296875 Z M 5.953125 -10.296875 C 5.953125 -8.335938 6.410156 -6.773438 7.328125 -5.609375 C 8.242188 -4.441406 9.507812 -3.859375 11.125 -3.859375 C 12.738281 -3.859375 14 -4.441406 14.90625 -5.609375 C 15.8125 -6.773438 16.265625 -8.335938 16.265625 -10.296875 C 16.265625 -12.234375 15.8125 -13.78125 14.90625 -14.9375 C 14 -16.09375 12.738281 -16.671875 11.125 -16.671875 C 9.507812 -16.671875 8.242188 -16.09375 7.328125 -14.9375 C 6.410156 -13.78125 5.953125 -12.234375 5.953125 -10.296875 Z M 5.953125 -10.296875 "/></g></g></g><g fill="#ff0000" fill-opacity="1"><g transform="translate(192.841964, 34.571393)"><g><path d="M 10 0.375 C 9.007812 0.375 8.003906 0.253906 6.984375 0.015625 C 5.972656 -0.222656 5.035156 -0.613281 4.171875 -1.15625 C 3.304688 -1.695312 2.582031 -2.421875 2 -3.328125 C 1.414062 -4.234375 1.0625 -5.351562 0.9375 -6.6875 L 4.953125 -6.6875 C 5.191406 -5.707031 5.570312 -4.941406 6.09375 -4.390625 C 6.613281 -3.847656 7.21875 -3.46875 7.90625 -3.25 C 8.59375 -3.039062 9.296875 -2.9375 10.015625 -2.9375 C 11.078125 -2.9375 11.96875 -3.160156 12.6875 -3.609375 C 13.40625 -4.054688 13.765625 -4.773438 13.765625 -5.765625 C 13.765625 -6.484375 13.53125 -7.039062 13.0625 -7.4375 C 12.59375 -7.832031 11.984375 -8.140625 11.234375 -8.359375 C 10.492188 -8.585938 9.6875 -8.789062 8.8125 -8.96875 C 7.96875 -9.164062 7.125 -9.378906 6.28125 -9.609375 C 5.4375 -9.847656 4.65625 -10.171875 3.9375 -10.578125 C 3.226562 -10.992188 2.660156 -11.546875 2.234375 -12.234375 C 1.816406 -12.929688 1.609375 -13.816406 1.609375 -14.890625 C 1.609375 -16.222656 1.925781 -17.332031 2.5625 -18.21875 C 3.207031 -19.113281 4.078125 -19.789062 5.171875 -20.25 C 6.265625 -20.707031 7.503906 -20.9375 8.890625 -20.9375 C 10.210938 -20.9375 11.457031 -20.703125 12.625 -20.234375 C 13.800781 -19.765625 14.789062 -19.050781 15.59375 -18.09375 C 16.40625 -17.144531 16.914062 -15.925781 17.125 -14.4375 L 13.171875 -14.4375 C 12.921875 -15.53125 12.394531 -16.332031 11.59375 -16.84375 C 10.789062 -17.351562 9.863281 -17.609375 8.8125 -17.609375 C 7.84375 -17.609375 7.039062 -17.40625 6.40625 -17 C 5.78125 -16.601562 5.46875 -16.007812 5.46875 -15.21875 C 5.46875 -14.59375 5.6875 -14.097656 6.125 -13.734375 C 6.5625 -13.378906 7.140625 -13.097656 7.859375 -12.890625 C 8.578125 -12.679688 9.351562 -12.476562 10.1875 -12.28125 C 11.039062 -12.101562 11.90625 -11.882812 12.78125 -11.625 C 13.65625 -11.363281 14.460938 -11.007812 15.203125 -10.5625 C 15.953125 -10.125 16.550781 -9.535156 17 -8.796875 C 17.445312 -8.066406 17.671875 -7.117188 17.671875 -5.953125 C 17.671875 -4.015625 16.992188 -2.472656 15.640625 -1.328125 C 14.296875 -0.191406 12.414062 0.375 10 0.375 Z M 10 0.375 "/></g></g></g><g fill="#ff0000" fill-opacity="1"><g transform="translate(211.591726, 34.571393)"><g><path d="M 11.015625 0.375 C 9.328125 0.375 7.851562 0.0859375 6.59375 -0.484375 C 5.34375 -1.054688 4.304688 -1.835938 3.484375 -2.828125 C 2.671875 -3.816406 2.0625 -4.953125 1.65625 -6.234375 C 1.25 -7.515625 1.046875 -8.867188 1.046875 -10.296875 C 1.046875 -11.710938 1.25 -13.0625 1.65625 -14.34375 C 2.0625 -15.625 2.671875 -16.757812 3.484375 -17.75 C 4.304688 -18.738281 5.34375 -19.515625 6.59375 -20.078125 C 7.851562 -20.648438 9.328125 -20.9375 11.015625 -20.9375 C 12.722656 -20.9375 14.203125 -20.648438 15.453125 -20.078125 C 16.710938 -19.515625 17.75 -18.738281 18.5625 -17.75 C 19.382812 -16.757812 20 -15.625 20.40625 -14.34375 C 20.8125 -13.0625 21.015625 -11.710938 21.015625 -10.296875 C 21.015625 -8.867188 20.8125 -7.515625 20.40625 -6.234375 C 20 -4.953125 19.382812 -3.816406 18.5625 -2.828125 C 17.75 -1.835938 16.710938 -1.054688 15.453125 -0.484375 C 14.203125 0.0859375 12.722656 0.375 11.015625 0.375 Z M 11.015625 -3.09375 C 12.296875 -3.09375 13.375 -3.394531 14.25 -4 C 15.125 -4.601562 15.796875 -5.445312 16.265625 -6.53125 C 16.734375 -7.613281 16.96875 -8.867188 16.96875 -10.296875 C 16.96875 -11.710938 16.734375 -12.953125 16.265625 -14.015625 C 15.796875 -15.085938 15.125 -15.921875 14.25 -16.515625 C 13.375 -17.117188 12.296875 -17.421875 11.015625 -17.421875 C 9.773438 -17.421875 8.707031 -17.117188 7.8125 -16.515625 C 6.925781 -15.921875 6.25 -15.085938 5.78125 -14.015625 C 5.320312 -12.953125 5.09375 -11.710938 5.09375 -10.296875 C 5.09375 -8.867188 5.320312 -7.613281 5.78125 -6.53125 C 6.25 -5.445312 6.925781 -4.601562 7.8125 -4 C 8.707031 -3.394531 9.773438 -3.09375 11.015625 -3.09375 Z M 11.015625 -3.09375 "/></g></g></g><g fill="#ff0000" fill-opacity="1"><g transform="translate(233.681969, 34.571393)"><g><path d="M 14.40625 0 L 1.828125 0 L 1.828125 -20.546875 L 5.703125 -20.546875 L 5.703125 -3.46875 L 14.40625 -3.46875 Z M 14.40625 0 "/></g></g></g><g fill="#ff0000" fill-opacity="1"><g transform="translate(248.390837, 34.571393)"><g><path d="M 9.90625 0.375 C 7.957031 0.375 6.367188 0.046875 5.140625 -0.609375 C 3.921875 -1.265625 3.023438 -2.179688 2.453125 -3.359375 C 1.890625 -4.546875 1.609375 -5.914062 1.609375 -7.46875 L 1.609375 -20.546875 L 5.515625 -20.546875 L 5.515625 -7.46875 C 5.515625 -6.625 5.648438 -5.867188 5.921875 -5.203125 C 6.191406 -4.535156 6.648438 -4.015625 7.296875 -3.640625 C 7.941406 -3.273438 8.8125 -3.09375 9.90625 -3.09375 C 11.019531 -3.09375 11.894531 -3.273438 12.53125 -3.640625 C 13.175781 -4.015625 13.628906 -4.535156 13.890625 -5.203125 C 14.160156 -5.867188 14.296875 -6.625 14.296875 -7.46875 L 14.296875 -20.546875 L 18.203125 -20.546875 L 18.203125 -7.46875 C 18.203125 -5.914062 17.921875 -4.546875 17.359375 -3.359375 C 16.796875 -2.179688 15.898438 -1.265625 14.671875 -0.609375 C 13.453125 0.046875 11.863281 0.375 9.90625 0.375 Z M 9.90625 0.375 "/></g></g></g><g fill="#ff0000" fill-opacity="1"><g transform="translate(268.245107, 34.571393)"><g><path d="M 10.421875 0 L 6.546875 0 L 6.546875 -17.078125 L 0.265625 -17.078125 L 0.265625 -20.546875 L 16.671875 -20.546875 L 16.671875 -17.078125 L 10.421875 -17.078125 Z M 10.421875 0 "/></g></g></g><g fill="#ff0000" fill-opacity="1"><g transform="translate(285.216872, 34.571393)"><g><path d="M 5.703125 0 L 1.828125 0 L 1.828125 -20.546875 L 5.703125 -20.546875 Z M 5.703125 0 "/></g></g></g><g fill="#ff0000" fill-opacity="1"><g transform="translate(292.75988, 34.571393)"><g><path d="M 11.015625 0.375 C 9.328125 0.375 7.851562 0.0859375 6.59375 -0.484375 C 5.34375 -1.054688 4.304688 -1.835938 3.484375 -2.828125 C 2.671875 -3.816406 2.0625 -4.953125 1.65625 -6.234375 C 1.25 -7.515625 1.046875 -8.867188 1.046875 -10.296875 C 1.046875 -11.710938 1.25 -13.0625 1.65625 -14.34375 C 2.0625 -15.625 2.671875 -16.757812 3.484375 -17.75 C 4.304688 -18.738281 5.34375 -19.515625 6.59375 -20.078125 C 7.851562 -20.648438 9.328125 -20.9375 11.015625 -20.9375 C 12.722656 -20.9375 14.203125 -20.648438 15.453125 -20.078125 C 16.710938 -19.515625 17.75 -18.738281 18.5625 -17.75 C 19.382812 -16.757812 20 -15.625 20.40625 -14.34375 C 20.8125 -13.0625 21.015625 -11.710938 21.015625 -10.296875 C 21.015625 -8.867188 20.8125 -7.515625 20.40625 -6.234375 C 20 -4.953125 19.382812 -3.816406 18.5625 -2.828125 C 17.75 -1.835938 16.710938 -1.054688 15.453125 -0.484375 C 14.203125 0.0859375 12.722656 0.375 11.015625 0.375 Z M 11.015625 -3.09375 C 12.296875 -3.09375 13.375 -3.394531 14.25 -4 C 15.125 -4.601562 15.796875 -5.445312 16.265625 -6.53125 C 16.734375 -7.613281 16.96875 -8.867188 16.96875 -10.296875 C 16.96875 -11.710938 16.734375 -12.953125 16.265625 -14.015625 C 15.796875 -15.085938 15.125 -15.921875 14.25 -16.515625 C 13.375 -17.117188 12.296875 -17.421875 11.015625 -17.421875 C 9.773438 -17.421875 8.707031 -17.117188 7.8125 -16.515625 C 6.925781 -15.921875 6.25 -15.085938 5.78125 -14.015625 C 5.320312 -12.953125 5.09375 -11.710938 5.09375 -10.296875 C 5.09375 -8.867188 5.320312 -7.613281 5.78125 -6.53125 C 6.25 -5.445312 6.925781 -4.601562 7.8125 -4 C 8.707031 -3.394531 9.773438 -3.09375 11.015625 -3.09375 Z M 11.015625 -3.09375 "/></g></g></g><g fill="#ff0000" fill-opacity="1"><g transform="translate(314.850122, 34.571393)"><g><path d="M 5.703125 0 L 1.828125 0 L 1.828125 -20.546875 L 6.203125 -20.546875 L 14.625 -5.84375 L 14.625 -20.546875 L 18.5 -20.546875 L 18.5 0 L 14.109375 0 L 5.703125 -14.734375 Z M 5.703125 0 "/></g></g></g><g fill="#ff0000" fill-opacity="1"><g transform="translate(335.189303, 34.571393)"><g><path d="M 10 0.375 C 9.007812 0.375 8.003906 0.253906 6.984375 0.015625 C 5.972656 -0.222656 5.035156 -0.613281 4.171875 -1.15625 C 3.304688 -1.695312 2.582031 -2.421875 2 -3.328125 C 1.414062 -4.234375 1.0625 -5.351562 0.9375 -6.6875 L 4.953125 -6.6875 C 5.191406 -5.707031 5.570312 -4.941406 6.09375 -4.390625 C 6.613281 -3.847656 7.21875 -3.46875 7.90625 -3.25 C 8.59375 -3.039062 9.296875 -2.9375 10.015625 -2.9375 C 11.078125 -2.9375 11.96875 -3.160156 12.6875 -3.609375 C 13.40625 -4.054688 13.765625 -4.773438 13.765625 -5.765625 C 13.765625 -6.484375 13.53125 -7.039062 13.0625 -7.4375 C 12.59375 -7.832031 11.984375 -8.140625 11.234375 -8.359375 C 10.492188 -8.585938 9.6875 -8.789062 8.8125 -8.96875 C 7.96875 -9.164062 7.125 -9.378906 6.28125 -9.609375 C 5.4375 -9.847656 4.65625 -10.171875 3.9375 -10.578125 C 3.226562 -10.992188 2.660156 -11.546875 2.234375 -12.234375 C 1.816406 -12.929688 1.609375 -13.816406 1.609375 -14.890625 C 1.609375 -16.222656 1.925781 -17.332031 2.5625 -18.21875 C 3.207031 -19.113281 4.078125 -19.789062 5.171875 -20.25 C 6.265625 -20.707031 7.503906 -20.9375 8.890625 -20.9375 C 10.210938 -20.9375 11.457031 -20.703125 12.625 -20.234375 C 13.800781 -19.765625 14.789062 -19.050781 15.59375 -18.09375 C 16.40625 -17.144531 16.914062 -15.925781 17.125 -14.4375 L 13.171875 -14.4375 C 12.921875 -15.53125 12.394531 -16.332031 11.59375 -16.84375 C 10.789062 -17.351562 9.863281 -17.609375 8.8125 -17.609375 C 7.84375 -17.609375 7.039062 -17.40625 6.40625 -17 C 5.78125 -16.601562 5.46875 -16.007812 5.46875 -15.21875 C 5.46875 -14.59375 5.6875 -14.097656 6.125 -13.734375 C 6.5625 -13.378906 7.140625 -13.097656 7.859375 -12.890625 C 8.578125 -12.679688 9.351562 -12.476562 10.1875 -12.28125 C 11.039062 -12.101562 11.90625 -11.882812 12.78125 -11.625 C 13.65625 -11.363281 14.460938 -11.007812 15.203125 -10.5625 C 15.953125 -10.125 16.550781 -9.535156 17 -8.796875 C 17.445312 -8.066406 17.671875 -7.117188 17.671875 -5.953125 C 17.671875 -4.015625 16.992188 -2.472656 15.640625 -1.328125 C 14.296875 -0.191406 12.414062 0.375 10 0.375 Z M 10 0.375 "/></g></g></g><g clip-path="url(#3809ac383e)"><path fill="#ff9b00" d="M 34.722656 10.464844 L 17.445312 20.449219 L 17.445312 15.984375 L 34.722656 6.003906 L 51.996094 15.984375 L 51.996094 20.449219 Z M 27.945312 39.722656 L 34.664062 43.644531 L 51.996094 33.628906 L 51.996094 26.671875 L 43.726562 21.890625 L 24.273438 33.128906 L 21.308594 31.402344 L 21.308594 27.609375 L 33.683594 20.484375 L 35.902344 21.773438 L 39.757812 19.546875 L 33.691406 16.015625 L 17.445312 25.375 L 17.445312 33.625 L 24.269531 37.59375 L 43.726562 26.355469 L 48.132812 28.902344 L 48.132812 31.398438 L 34.679688 39.167969 L 31.800781 37.496094 Z M 27.945312 39.722656 " fill-opacity="1" fill-rule="nonzero"/></g></svg>